<?xml version="1.0" encoding="UTF-8"?><svg xmlns="http://www.w3.org/2000/svg" xmlns:xlink="http://www.w3.org/1999/xlink" fill-opacity="1" color-rendering="auto" color-interpolation="auto" text-rendering="auto" stroke="black" stroke-linecap="square" width="334" stroke-miterlimit="10" shape-rendering="auto" stroke-opacity="1" fill="black" stroke-dasharray="none" font-weight="normal" stroke-width="1" height="375" font-family="'Dialog'" font-style="normal" stroke-linejoin="miter" font-size="12px" stroke-dashoffset="0" image-rendering="auto">
  <!--Generated by ySVG 2.5-->
  <defs id="genericDefs"/>
  <g>
    <defs id="defs1">
      <clipPath clipPathUnits="userSpaceOnUse" id="clipPath1">
        <path d="M0 0 L334 0 L334 375 L0 375 L0 0 Z"/>
      </clipPath>
      <clipPath clipPathUnits="userSpaceOnUse" id="clipPath2">
        <path d="M277 85 L611 85 L611 460 L277 460 L277 85 Z"/>
      </clipPath>
    </defs>
    <g fill="rgb(153,204,255)" text-rendering="geometricPrecision" shape-rendering="geometricPrecision" transform="matrix(1,0,0,1,-277,-85)" stroke="rgb(153,204,255)">
      <rect x="400" width="100" height="50" y="100" clip-path="url(#clipPath2)" stroke="none"/>
    </g>
    <g text-rendering="geometricPrecision" stroke-miterlimit="1.45" shape-rendering="geometricPrecision" transform="matrix(1,0,0,1,-277,-85)" stroke-linecap="butt">
      <rect fill="none" x="400" width="100" height="50" y="100" clip-path="url(#clipPath2)"/>
      <text x="408.2051" xml:space="preserve" y="129.5352" clip-path="url(#clipPath2)" font-family="sans-serif" stroke="none">ARIMA(p, d, q)</text>
    </g>
    <g fill="rgb(153,204,255)" text-rendering="geometricPrecision" shape-rendering="geometricPrecision" transform="matrix(1,0,0,1,-277,-85)" stroke="rgb(153,204,255)">
      <rect x="400" width="100" height="50" y="200" clip-path="url(#clipPath2)" stroke="none"/>
    </g>
    <g text-rendering="geometricPrecision" stroke-miterlimit="1.45" shape-rendering="geometricPrecision" transform="matrix(1,0,0,1,-277,-85)" stroke-linecap="butt">
      <rect fill="none" x="400" width="100" height="50" y="200" clip-path="url(#clipPath2)"/>
      <text x="417.5068" xml:space="preserve" y="229.5352" clip-path="url(#clipPath2)" font-family="sans-serif" stroke="none">ARMA(p, q)</text>
    </g>
    <g fill="rgb(153,204,255)" text-rendering="geometricPrecision" shape-rendering="geometricPrecision" transform="matrix(1,0,0,1,-277,-85)" stroke="rgb(153,204,255)">
      <rect x="320" width="100" height="50" y="300" clip-path="url(#clipPath2)" stroke="none"/>
    </g>
    <g text-rendering="geometricPrecision" stroke-miterlimit="1.45" shape-rendering="geometricPrecision" transform="matrix(1,0,0,1,-277,-85)" stroke-linecap="butt">
      <rect fill="none" x="320" width="100" height="50" y="300" clip-path="url(#clipPath2)"/>
      <text x="354.3877" xml:space="preserve" y="329.5352" clip-path="url(#clipPath2)" font-family="sans-serif" stroke="none">AR(p)</text>
    </g>
    <g fill="rgb(153,204,255)" text-rendering="geometricPrecision" shape-rendering="geometricPrecision" transform="matrix(1,0,0,1,-277,-85)" stroke="rgb(153,204,255)">
      <rect x="480" width="100" height="50" y="300" clip-path="url(#clipPath2)" stroke="none"/>
    </g>
    <g text-rendering="geometricPrecision" stroke-miterlimit="1.45" shape-rendering="geometricPrecision" transform="matrix(1,0,0,1,-277,-85)" stroke-linecap="butt">
      <rect fill="none" x="480" width="100" height="50" y="300" clip-path="url(#clipPath2)"/>
      <text x="513.0137" xml:space="preserve" y="329.5352" clip-path="url(#clipPath2)" font-family="sans-serif" stroke="none">MA(q)</text>
    </g>
    <g fill="rgb(153,204,255)" text-rendering="geometricPrecision" shape-rendering="geometricPrecision" transform="matrix(1,0,0,1,-277,-85)" stroke="rgb(153,204,255)">
      <rect x="400" width="100" height="50" y="395" clip-path="url(#clipPath2)" stroke="none"/>
    </g>
    <g text-rendering="geometricPrecision" stroke-miterlimit="1.45" shape-rendering="geometricPrecision" transform="matrix(1,0,0,1,-277,-85)" stroke-linecap="butt">
      <rect fill="none" x="400" width="100" height="50" y="395" clip-path="url(#clipPath2)"/>
      <text x="432" xml:space="preserve" y="424.5352" clip-path="url(#clipPath2)" font-family="sans-serif" stroke="none">白噪声</text>
      <path fill="none" d="M450 150 L450 192" clip-path="url(#clipPath2)"/>
      <path d="M450 200 L455 188 L450 191 L445 188 Z" clip-path="url(#clipPath2)" stroke="none"/>
      <text x="398.2236" xml:space="preserve" y="179.5352" clip-path="url(#clipPath2)" font-family="sans-serif" stroke="none">d次差分</text>
      <path fill="none" d="M399.9707 225 L370 225 L370 291.9634" clip-path="url(#clipPath2)"/>
      <path d="M370 299.9634 L375 287.9634 L370 290.9634 L365 287.9634 Z" clip-path="url(#clipPath2)" stroke="none"/>
      <text x="294" xml:space="preserve" y="255.4062" clip-path="url(#clipPath2)" font-family="sans-serif" stroke="none">无滑动平均项</text>
      <text x="313.7578" xml:space="preserve" y="269.5391" clip-path="url(#clipPath2)" font-family="sans-serif" stroke="none">(q=0)</text>
      <path fill="none" d="M500 225 L530 225 L530 291.9634" clip-path="url(#clipPath2)"/>
      <path d="M530 299.9634 L535 287.9634 L530 290.9634 L525 287.9634 Z" clip-path="url(#clipPath2)" stroke="none"/>
      <text x="534" xml:space="preserve" y="255.4062" clip-path="url(#clipPath2)" font-family="sans-serif" stroke="none">无自回归项</text>
      <text x="547.7578" xml:space="preserve" y="269.5391" clip-path="url(#clipPath2)" font-family="sans-serif" stroke="none">(p=0)</text>
      <path fill="none" d="M370 350 L370 420 L391.9707 420" clip-path="url(#clipPath2)"/>
      <path d="M399.9707 420 L387.9707 415 L390.9707 420 L387.9707 425 Z" clip-path="url(#clipPath2)" stroke="none"/>
      <text x="327.6602" xml:space="preserve" y="396.5684" clip-path="url(#clipPath2)" font-family="sans-serif" stroke="none">p=0</text>
      <path fill="none" d="M530 350 L530 420 L508 420" clip-path="url(#clipPath2)"/>
      <path d="M500 420 L512 425 L509 420 L512 415 Z" clip-path="url(#clipPath2)" stroke="none"/>
      <text x="547.6602" xml:space="preserve" y="396.5684" clip-path="url(#clipPath2)" font-family="sans-serif" stroke="none">q=0</text>
    </g>
  </g>
</svg>
