<?xml version="1.0" encoding="UTF-8"?>
<svg xmlns="http://www.w3.org/2000/svg" xmlns:xlink="http://www.w3.org/1999/xlink" width="719pt" height="347pt" viewBox="0 0 719 347" version="1.1">
<defs>
<clipPath id="clip1">
  <path d="M 25.644531 14.050781 L 699.648438 14.050781 L 699.648438 314.117188 L 25.644531 314.117188 Z M 25.644531 14.050781 "/>
</clipPath>
</defs>
<g id="surface1">
<path style="fill:none;stroke-width:0.3985;stroke-linecap:butt;stroke-linejoin:miter;stroke:rgb(85.098039%,85.098039%,85.098039%);stroke-opacity:1;stroke-dasharray:2.98883,2.98883;stroke-miterlimit:10;" d="M -0.00121332 0.000166427 L -0.00121332 181.942448 M 40.869049 0.000166427 L 40.869049 181.942448 M 81.74168 0.000166427 L 81.74168 181.942448 M 122.61668 0.000166427 L 122.61668 181.942448 M 163.486943 0.000166427 L 163.486943 181.942448 M 245.229837 0.000166427 L 245.229837 181.942448 M 286.100099 0.000166427 L 286.100099 181.942448 M 326.970362 0.000166427 L 326.970362 181.942448 M 367.842993 0.000166427 L 367.842993 181.942448 M 408.713256 0.000166427 L 408.713256 181.942448 " transform="matrix(1.649083,0,0,-1.64924,25.646532,314.117462)"/>
<path style="fill:none;stroke-width:0.3985;stroke-linecap:butt;stroke-linejoin:miter;stroke:rgb(85.098039%,85.098039%,85.098039%);stroke-opacity:1;stroke-dasharray:2.98883,2.98883;stroke-miterlimit:10;" d="M -0.00121332 36.387675 L 408.713256 36.387675 M -0.00121332 72.777553 L 408.713256 72.777553 M -0.00121332 109.165062 L 408.713256 109.165062 M -0.00121332 145.552571 L 408.713256 145.552571 M -0.00121332 181.942448 L 408.713256 181.942448 " transform="matrix(1.649083,0,0,-1.64924,25.646532,314.117462)"/>
<path style="fill:none;stroke-width:0.19925;stroke-linecap:butt;stroke-linejoin:miter;stroke:rgb(50.196078%,50.196078%,50.196078%);stroke-opacity:1;stroke-miterlimit:10;" d="M -0.00121332 -4.253688 L -0.00121332 0.000166427 M 40.869049 -4.253688 L 40.869049 0.000166427 M 81.74168 -4.253688 L 81.74168 0.000166427 M 122.61668 -4.253688 L 122.61668 0.000166427 M 163.486943 -4.253688 L 163.486943 0.000166427 M 245.229837 -4.253688 L 245.229837 0.000166427 M 286.100099 -4.253688 L 286.100099 0.000166427 M 326.970362 -4.253688 L 326.970362 0.000166427 M 367.842993 -4.253688 L 367.842993 0.000166427 M 408.713256 -4.253688 L 408.713256 0.000166427 " transform="matrix(1.649083,0,0,-1.64924,25.646532,314.117462)"/>
<path style="fill:none;stroke-width:0.19925;stroke-linecap:butt;stroke-linejoin:miter;stroke:rgb(50.196078%,50.196078%,50.196078%);stroke-opacity:1;stroke-miterlimit:10;" d="M 200.105315 36.387675 L 204.357205 36.387675 M 200.105315 72.777553 L 204.357205 72.777553 M 200.105315 109.165062 L 204.357205 109.165062 M 200.105315 145.552571 L 204.357205 145.552571 M 200.105315 181.942448 L 204.357205 181.942448 " transform="matrix(1.649083,0,0,-1.64924,25.646532,314.117462)"/>
<path style="fill:none;stroke-width:0.3985;stroke-linecap:butt;stroke-linejoin:miter;stroke:rgb(0%,0%,0%);stroke-opacity:1;stroke-miterlimit:10;" d="M -0.00121332 0.000166427 L 406.721144 0.000166427 " transform="matrix(1.649083,0,0,-1.64924,25.646532,314.117462)"/>
<path style=" stroke:none;fill-rule:nonzero;fill:rgb(0%,0%,0%);fill-opacity:1;" d="M 699.648438 314.117188 L 694.394531 311.488281 L 696.363281 314.117188 L 694.394531 316.746094 "/>
<path style="fill:none;stroke-width:0.3985;stroke-linecap:butt;stroke-linejoin:miter;stroke:rgb(0%,0%,0%);stroke-opacity:1;stroke-miterlimit:10;" d="M 204.357205 0.000166427 L 204.357205 179.950527 " transform="matrix(1.649083,0,0,-1.64924,25.646532,314.117462)"/>
<path style=" stroke:none;fill-rule:nonzero;fill:rgb(0%,0%,0%);fill-opacity:1;" d="M 362.648438 14.050781 L 360.023438 19.308594 L 362.648438 17.335938 L 365.277344 19.308594 "/>
<path style=" stroke:none;fill-rule:nonzero;fill:rgb(0%,0%,0%);fill-opacity:1;" d="M 19.582031 333.738281 C 19.867188 333.738281 20.175781 333.738281 20.175781 333.402344 C 20.175781 333.09375 19.867188 333.09375 19.582031 333.09375 L 10.695312 333.09375 C 10.410156 333.09375 10.128906 333.09375 10.128906 333.402344 C 10.128906 333.738281 10.410156 333.738281 10.695312 333.738281 Z M 19.582031 333.738281 "/>
<path style=" stroke:none;fill-rule:nonzero;fill:rgb(0%,0%,0%);fill-opacity:1;" d="M 26.382812 327.011719 C 26.382812 326.597656 26.382812 326.574219 25.996094 326.574219 C 24.96875 327.628906 23.523438 327.628906 23.007812 327.628906 L 23.007812 328.144531 C 23.34375 328.144531 24.296875 328.144531 25.148438 327.707031 L 25.148438 336.238281 C 25.148438 336.828125 25.097656 337.007812 23.628906 337.007812 L 23.113281 337.007812 L 23.113281 337.523438 C 23.679688 337.472656 25.097656 337.472656 25.765625 337.472656 C 26.410156 337.472656 27.851562 337.472656 28.421875 337.523438 L 28.421875 337.007812 L 27.90625 337.007812 C 26.410156 337.007812 26.382812 336.828125 26.382812 336.238281 Z M 26.382812 327.011719 "/>
<path style=" stroke:none;fill-rule:nonzero;fill:rgb(0%,0%,0%);fill-opacity:1;" d="M 32.898438 336.648438 C 32.898438 336.183594 32.511719 335.773438 32.046875 335.773438 C 31.558594 335.773438 31.171875 336.183594 31.171875 336.648438 C 31.171875 337.136719 31.558594 337.523438 32.046875 337.523438 C 32.511719 337.523438 32.898438 337.136719 32.898438 336.648438 Z M 32.898438 336.648438 "/>
<path style=" stroke:none;fill-rule:nonzero;fill:rgb(0%,0%,0%);fill-opacity:1;" d="M 41.867188 332.269531 C 41.867188 330.953125 41.792969 329.640625 41.222656 328.429688 C 40.476562 326.832031 39.113281 326.574219 38.441406 326.574219 C 37.4375 326.574219 36.25 327.011719 35.554688 328.53125 C 35.039062 329.664062 34.964844 330.953125 34.964844 332.269531 C 34.964844 333.503906 35.015625 334.972656 35.710938 336.238281 C 36.40625 337.550781 37.617188 337.886719 38.414062 337.886719 C 39.292969 337.886719 40.554688 337.550781 41.277344 335.980469 C 41.792969 334.84375 41.867188 333.554688 41.867188 332.269531 Z M 38.414062 337.523438 C 37.773438 337.523438 36.792969 337.113281 36.507812 335.539062 C 36.328125 334.5625 36.328125 333.042969 36.328125 332.0625 C 36.328125 331.003906 36.328125 329.921875 36.457031 329.046875 C 36.765625 327.089844 38.003906 326.933594 38.414062 326.933594 C 38.957031 326.933594 40.039062 327.242188 40.347656 328.867188 C 40.527344 329.792969 40.527344 331.03125 40.527344 332.0625 C 40.527344 333.300781 40.527344 334.40625 40.347656 335.464844 C 40.089844 337.035156 39.164062 337.523438 38.414062 337.523438 Z M 38.414062 337.523438 "/>
<path style=" stroke:none;fill-rule:nonzero;fill:rgb(0%,0%,0%);fill-opacity:1;" d="M 86.984375 333.738281 C 87.265625 333.738281 87.574219 333.738281 87.574219 333.402344 C 87.574219 333.09375 87.265625 333.09375 86.984375 333.09375 L 78.09375 333.09375 C 77.808594 333.09375 77.527344 333.09375 77.527344 333.402344 C 77.527344 333.738281 77.808594 333.738281 78.09375 333.738281 Z M 86.984375 333.738281 "/>
<path style=" stroke:none;fill-rule:nonzero;fill:rgb(0%,0%,0%);fill-opacity:1;" d="M 96.488281 332.269531 C 96.488281 330.953125 96.414062 329.640625 95.84375 328.429688 C 95.097656 326.832031 93.734375 326.574219 93.0625 326.574219 C 92.058594 326.574219 90.871094 327.011719 90.175781 328.53125 C 89.660156 329.664062 89.585938 330.953125 89.585938 332.269531 C 89.585938 333.503906 89.636719 334.972656 90.332031 336.238281 C 91.027344 337.550781 92.238281 337.886719 93.035156 337.886719 C 93.914062 337.886719 95.175781 337.550781 95.898438 335.980469 C 96.414062 334.84375 96.488281 333.554688 96.488281 332.269531 Z M 93.035156 337.523438 C 92.394531 337.523438 91.414062 337.113281 91.128906 335.539062 C 90.949219 334.5625 90.949219 333.042969 90.949219 332.0625 C 90.949219 331.003906 90.949219 329.921875 91.078125 329.046875 C 91.386719 327.089844 92.625 326.933594 93.035156 326.933594 C 93.578125 326.933594 94.660156 327.242188 94.96875 328.867188 C 95.148438 329.792969 95.148438 331.03125 95.148438 332.0625 C 95.148438 333.300781 95.148438 334.40625 94.96875 335.464844 C 94.710938 337.035156 93.785156 337.523438 93.035156 337.523438 Z M 93.035156 337.523438 "/>
<path style=" stroke:none;fill-rule:nonzero;fill:rgb(0%,0%,0%);fill-opacity:1;" d="M 100.296875 336.648438 C 100.296875 336.183594 99.910156 335.773438 99.449219 335.773438 C 98.957031 335.773438 98.570312 336.183594 98.570312 336.648438 C 98.570312 337.136719 98.957031 337.523438 99.449219 337.523438 C 99.910156 337.523438 100.296875 337.136719 100.296875 336.648438 Z M 100.296875 336.648438 "/>
<path style=" stroke:none;fill-rule:nonzero;fill:rgb(0%,0%,0%);fill-opacity:1;" d="M 104.398438 330 C 103.648438 329.511719 103.574219 328.96875 103.574219 328.6875 C 103.574219 327.679688 104.65625 326.984375 105.8125 326.984375 C 107 326.984375 108.054688 327.835938 108.054688 329.019531 C 108.054688 329.976562 107.410156 330.746094 106.433594 331.316406 Z M 106.792969 331.574219 C 107.976562 330.953125 108.777344 330.105469 108.777344 329.019531 C 108.777344 327.5 107.335938 326.574219 105.839844 326.574219 C 104.191406 326.574219 102.851562 327.785156 102.851562 329.332031 C 102.851562 329.613281 102.875 330.359375 103.574219 331.132812 C 103.753906 331.316406 104.371094 331.726562 104.785156 332.011719 C 103.828125 332.5 102.414062 333.402344 102.414062 335.050781 C 102.414062 336.777344 104.085938 337.886719 105.8125 337.886719 C 107.667969 337.886719 109.242188 336.519531 109.242188 334.769531 C 109.242188 334.175781 109.0625 333.429688 108.417969 332.730469 C 108.105469 332.398438 107.847656 332.242188 106.792969 331.574219 Z M 105.144531 332.269531 L 107.179688 333.554688 C 107.644531 333.867188 108.417969 334.355469 108.417969 335.359375 C 108.417969 336.570312 107.179688 337.421875 105.839844 337.421875 C 104.421875 337.421875 103.238281 336.417969 103.238281 335.050781 C 103.238281 334.097656 103.753906 333.042969 105.144531 332.269531 Z M 105.144531 332.269531 "/>
<path style=" stroke:none;fill-rule:nonzero;fill:rgb(0%,0%,0%);fill-opacity:1;" d="M 154.382812 333.738281 C 154.667969 333.738281 154.976562 333.738281 154.976562 333.402344 C 154.976562 333.09375 154.667969 333.09375 154.382812 333.09375 L 145.492188 333.09375 C 145.210938 333.09375 144.925781 333.09375 144.925781 333.402344 C 144.925781 333.738281 145.210938 333.738281 145.492188 333.738281 Z M 154.382812 333.738281 "/>
<path style=" stroke:none;fill-rule:nonzero;fill:rgb(0%,0%,0%);fill-opacity:1;" d="M 163.890625 332.269531 C 163.890625 330.953125 163.8125 329.640625 163.246094 328.429688 C 162.496094 326.832031 161.132812 326.574219 160.460938 326.574219 C 159.457031 326.574219 158.273438 327.011719 157.578125 328.53125 C 157.0625 329.664062 156.984375 330.953125 156.984375 332.269531 C 156.984375 333.503906 157.035156 334.972656 157.730469 336.238281 C 158.425781 337.550781 159.636719 337.886719 160.4375 337.886719 C 161.3125 337.886719 162.574219 337.550781 163.296875 335.980469 C 163.8125 334.84375 163.890625 333.554688 163.890625 332.269531 Z M 160.4375 337.523438 C 159.792969 337.523438 158.8125 337.113281 158.53125 335.539062 C 158.347656 334.5625 158.347656 333.042969 158.347656 332.0625 C 158.347656 331.003906 158.347656 329.921875 158.476562 329.046875 C 158.789062 327.089844 160.023438 326.933594 160.4375 326.933594 C 160.976562 326.933594 162.058594 327.242188 162.367188 328.867188 C 162.550781 329.792969 162.550781 331.03125 162.550781 332.0625 C 162.550781 333.300781 162.550781 334.40625 162.367188 335.464844 C 162.113281 337.035156 161.183594 337.523438 160.4375 337.523438 Z M 160.4375 337.523438 "/>
<path style=" stroke:none;fill-rule:nonzero;fill:rgb(0%,0%,0%);fill-opacity:1;" d="M 167.699219 336.648438 C 167.699219 336.183594 167.3125 335.773438 166.847656 335.773438 C 166.355469 335.773438 165.972656 336.183594 165.972656 336.648438 C 165.972656 337.136719 166.355469 337.523438 166.847656 337.523438 C 167.3125 337.523438 167.699219 337.136719 167.699219 336.648438 Z M 167.699219 336.648438 "/>
<path style=" stroke:none;fill-rule:nonzero;fill:rgb(0%,0%,0%);fill-opacity:1;" d="M 171.28125 332.140625 L 171.28125 331.726562 C 171.28125 327.578125 173.316406 326.984375 174.167969 326.984375 C 174.554688 326.984375 175.25 327.089844 175.609375 327.65625 C 175.351562 327.65625 174.707031 327.65625 174.707031 328.378906 C 174.707031 328.890625 175.09375 329.148438 175.457031 329.148438 C 175.714844 329.148438 176.226562 328.996094 176.226562 328.351562 C 176.226562 327.371094 175.507812 326.574219 174.140625 326.574219 C 172.027344 326.574219 169.8125 328.6875 169.8125 332.320312 C 169.8125 336.726562 171.71875 337.886719 173.238281 337.886719 C 175.070312 337.886719 176.640625 336.339844 176.640625 334.175781 C 176.640625 332.085938 175.171875 330.515625 173.34375 330.515625 C 172.234375 330.515625 171.617188 331.339844 171.28125 332.140625 Z M 173.238281 337.421875 C 172.207031 337.421875 171.71875 336.441406 171.617188 336.183594 C 171.308594 335.410156 171.308594 334.097656 171.308594 333.8125 C 171.308594 332.527344 171.847656 330.875 173.316406 330.875 C 173.601562 330.875 174.347656 330.875 174.863281 331.90625 C 175.144531 332.5 175.144531 333.351562 175.144531 334.148438 C 175.144531 334.949219 175.144531 335.773438 174.863281 336.367188 C 174.375 337.34375 173.625 337.421875 173.238281 337.421875 Z M 173.238281 337.421875 "/>
<path style=" stroke:none;fill-rule:nonzero;fill:rgb(0%,0%,0%);fill-opacity:1;" d="M 221.78125 333.738281 C 222.066406 333.738281 222.375 333.738281 222.375 333.402344 C 222.375 333.09375 222.066406 333.09375 221.78125 333.09375 L 212.894531 333.09375 C 212.609375 333.09375 212.328125 333.09375 212.328125 333.402344 C 212.328125 333.738281 212.609375 333.738281 212.894531 333.738281 Z M 221.78125 333.738281 "/>
<path style=" stroke:none;fill-rule:nonzero;fill:rgb(0%,0%,0%);fill-opacity:1;" d="M 231.289062 332.269531 C 231.289062 330.953125 231.210938 329.640625 230.644531 328.429688 C 229.898438 326.832031 228.53125 326.574219 227.863281 326.574219 C 226.855469 326.574219 225.671875 327.011719 224.976562 328.53125 C 224.460938 329.664062 224.382812 330.953125 224.382812 332.269531 C 224.382812 333.503906 224.433594 334.972656 225.128906 336.238281 C 225.828125 337.550781 227.039062 337.886719 227.835938 337.886719 C 228.710938 337.886719 229.976562 337.550781 230.695312 335.980469 C 231.210938 334.84375 231.289062 333.554688 231.289062 332.269531 Z M 227.835938 337.523438 C 227.191406 337.523438 226.214844 337.113281 225.929688 335.539062 C 225.75 334.5625 225.75 333.042969 225.75 332.0625 C 225.75 331.003906 225.75 329.921875 225.878906 329.046875 C 226.1875 327.089844 227.425781 326.933594 227.835938 326.933594 C 228.378906 326.933594 229.460938 327.242188 229.769531 328.867188 C 229.949219 329.792969 229.949219 331.03125 229.949219 332.0625 C 229.949219 333.300781 229.949219 334.40625 229.769531 335.464844 C 229.511719 337.035156 228.582031 337.523438 227.835938 337.523438 Z M 227.835938 337.523438 "/>
<path style=" stroke:none;fill-rule:nonzero;fill:rgb(0%,0%,0%);fill-opacity:1;" d="M 235.097656 336.648438 C 235.097656 336.183594 234.710938 335.773438 234.246094 335.773438 C 233.757812 335.773438 233.371094 336.183594 233.371094 336.648438 C 233.371094 337.136719 233.757812 337.523438 234.246094 337.523438 C 234.710938 337.523438 235.097656 337.136719 235.097656 336.648438 Z M 235.097656 336.648438 "/>
<path style=" stroke:none;fill-rule:nonzero;fill:rgb(0%,0%,0%);fill-opacity:1;" d="M 241.359375 334.820312 L 241.359375 336.238281 C 241.359375 336.828125 241.308594 337.007812 240.097656 337.007812 L 239.761719 337.007812 L 239.761719 337.523438 C 240.433594 337.472656 241.285156 337.472656 241.980469 337.472656 C 242.675781 337.472656 243.523438 337.472656 244.21875 337.523438 L 244.21875 337.007812 L 243.859375 337.007812 C 242.648438 337.007812 242.625 336.828125 242.625 336.238281 L 242.625 334.820312 L 244.246094 334.820312 L 244.246094 334.304688 L 242.625 334.304688 L 242.625 326.832031 C 242.625 326.496094 242.625 326.394531 242.339844 326.394531 C 242.210938 326.394531 242.160156 326.394531 242.03125 326.597656 L 236.980469 334.304688 L 236.980469 334.820312 Z M 241.4375 334.304688 L 237.445312 334.304688 L 241.4375 328.171875 Z M 241.4375 334.304688 "/>
<path style=" stroke:none;fill-rule:nonzero;fill:rgb(0%,0%,0%);fill-opacity:1;" d="M 289.183594 333.738281 C 289.464844 333.738281 289.773438 333.738281 289.773438 333.402344 C 289.773438 333.09375 289.464844 333.09375 289.183594 333.09375 L 280.292969 333.09375 C 280.007812 333.09375 279.726562 333.09375 279.726562 333.402344 C 279.726562 333.738281 280.007812 333.738281 280.292969 333.738281 Z M 289.183594 333.738281 "/>
<path style=" stroke:none;fill-rule:nonzero;fill:rgb(0%,0%,0%);fill-opacity:1;" d="M 298.6875 332.269531 C 298.6875 330.953125 298.609375 329.640625 298.042969 328.429688 C 297.296875 326.832031 295.929688 326.574219 295.261719 326.574219 C 294.253906 326.574219 293.070312 327.011719 292.375 328.53125 C 291.859375 329.664062 291.78125 330.953125 291.78125 332.269531 C 291.78125 333.503906 291.832031 334.972656 292.527344 336.238281 C 293.222656 337.550781 294.433594 337.886719 295.234375 337.886719 C 296.109375 337.886719 297.371094 337.550781 298.09375 335.980469 C 298.609375 334.84375 298.6875 333.554688 298.6875 332.269531 Z M 295.234375 337.523438 C 294.589844 337.523438 293.609375 337.113281 293.328125 335.539062 C 293.148438 334.5625 293.148438 333.042969 293.148438 332.0625 C 293.148438 331.003906 293.148438 329.921875 293.277344 329.046875 C 293.585938 327.089844 294.820312 326.933594 295.234375 326.933594 C 295.773438 326.933594 296.859375 327.242188 297.167969 328.867188 C 297.347656 329.792969 297.347656 331.03125 297.347656 332.0625 C 297.347656 333.300781 297.347656 334.40625 297.167969 335.464844 C 296.910156 337.035156 295.980469 337.523438 295.234375 337.523438 Z M 295.234375 337.523438 "/>
<path style=" stroke:none;fill-rule:nonzero;fill:rgb(0%,0%,0%);fill-opacity:1;" d="M 302.496094 336.648438 C 302.496094 336.183594 302.109375 335.773438 301.644531 335.773438 C 301.15625 335.773438 300.769531 336.183594 300.769531 336.648438 C 300.769531 337.136719 301.15625 337.523438 301.644531 337.523438 C 302.109375 337.523438 302.496094 337.136719 302.496094 336.648438 Z M 302.496094 336.648438 "/>
<path style=" stroke:none;fill-rule:nonzero;fill:rgb(0%,0%,0%);fill-opacity:1;" d="M 306.003906 336.261719 L 307.753906 334.5625 C 310.304688 332.292969 311.285156 331.417969 311.285156 329.769531 C 311.285156 327.886719 309.816406 326.574219 307.808594 326.574219 C 305.953125 326.574219 304.742188 328.09375 304.742188 329.5625 C 304.742188 330.464844 305.566406 330.464844 305.617188 330.464844 C 305.898438 330.464844 306.46875 330.285156 306.46875 329.589844 C 306.46875 329.175781 306.15625 328.738281 305.589844 328.738281 C 305.460938 328.738281 305.4375 328.738281 305.382812 328.761719 C 305.746094 327.679688 306.648438 327.089844 307.601562 327.089844 C 309.09375 327.089844 309.789062 328.429688 309.789062 329.769531 C 309.789062 331.082031 308.992188 332.371094 308.066406 333.402344 L 304.921875 336.90625 C 304.742188 337.085938 304.742188 337.136719 304.742188 337.523438 L 310.847656 337.523438 L 311.285156 334.664062 L 310.898438 334.664062 C 310.796875 335.15625 310.691406 335.875 310.511719 336.132812 C 310.410156 336.261719 309.328125 336.261719 308.964844 336.261719 Z M 306.003906 336.261719 "/>
<path style=" stroke:none;fill-rule:nonzero;fill:rgb(0%,0%,0%);fill-opacity:1;" d="M 427.097656 332.269531 C 427.097656 330.953125 427.019531 329.640625 426.453125 328.429688 C 425.707031 326.832031 424.339844 326.574219 423.671875 326.574219 C 422.664062 326.574219 421.480469 327.011719 420.785156 328.53125 C 420.269531 329.664062 420.191406 330.953125 420.191406 332.269531 C 420.191406 333.503906 420.242188 334.972656 420.941406 336.238281 C 421.636719 337.550781 422.847656 337.886719 423.644531 337.886719 C 424.519531 337.886719 425.785156 337.550781 426.503906 335.980469 C 427.019531 334.84375 427.097656 333.554688 427.097656 332.269531 Z M 423.644531 337.523438 C 423 337.523438 422.023438 337.113281 421.738281 335.539062 C 421.558594 334.5625 421.558594 333.042969 421.558594 332.0625 C 421.558594 331.003906 421.558594 329.921875 421.6875 329.046875 C 421.996094 327.089844 423.234375 326.933594 423.644531 326.933594 C 424.1875 326.933594 425.269531 327.242188 425.578125 328.867188 C 425.757812 329.792969 425.757812 331.03125 425.757812 332.0625 C 425.757812 333.300781 425.757812 334.40625 425.578125 335.464844 C 425.320312 337.035156 424.390625 337.523438 423.644531 337.523438 Z M 423.644531 337.523438 "/>
<path style=" stroke:none;fill-rule:nonzero;fill:rgb(0%,0%,0%);fill-opacity:1;" d="M 430.90625 336.648438 C 430.90625 336.183594 430.519531 335.773438 430.054688 335.773438 C 429.566406 335.773438 429.179688 336.183594 429.179688 336.648438 C 429.179688 337.136719 429.566406 337.523438 430.054688 337.523438 C 430.519531 337.523438 430.90625 337.136719 430.90625 336.648438 Z M 430.90625 336.648438 "/>
<path style=" stroke:none;fill-rule:nonzero;fill:rgb(0%,0%,0%);fill-opacity:1;" d="M 434.414062 336.261719 L 436.167969 334.5625 C 438.71875 332.292969 439.695312 331.417969 439.695312 329.769531 C 439.695312 327.886719 438.226562 326.574219 436.21875 326.574219 C 434.363281 326.574219 433.152344 328.09375 433.152344 329.5625 C 433.152344 330.464844 433.976562 330.464844 434.027344 330.464844 C 434.3125 330.464844 434.878906 330.285156 434.878906 329.589844 C 434.878906 329.175781 434.570312 328.738281 434 328.738281 C 433.871094 328.738281 433.847656 328.738281 433.796875 328.761719 C 434.15625 327.679688 435.058594 327.089844 436.011719 327.089844 C 437.507812 327.089844 438.203125 328.429688 438.203125 329.769531 C 438.203125 331.082031 437.402344 332.371094 436.476562 333.402344 L 433.332031 336.90625 C 433.152344 337.085938 433.152344 337.136719 433.152344 337.523438 L 439.257812 337.523438 L 439.695312 334.664062 L 439.308594 334.664062 C 439.207031 335.15625 439.101562 335.875 438.921875 336.132812 C 438.820312 336.261719 437.738281 336.261719 437.378906 336.261719 Z M 434.414062 336.261719 "/>
<path style=" stroke:none;fill-rule:nonzero;fill:rgb(0%,0%,0%);fill-opacity:1;" d="M 494.496094 332.269531 C 494.496094 330.953125 494.421875 329.640625 493.851562 328.429688 C 493.105469 326.832031 491.742188 326.574219 491.070312 326.574219 C 490.066406 326.574219 488.878906 327.011719 488.183594 328.53125 C 487.667969 329.664062 487.59375 330.953125 487.59375 332.269531 C 487.59375 333.503906 487.644531 334.972656 488.339844 336.238281 C 489.035156 337.550781 490.246094 337.886719 491.042969 337.886719 C 491.921875 337.886719 493.183594 337.550781 493.90625 335.980469 C 494.421875 334.84375 494.496094 333.554688 494.496094 332.269531 Z M 491.042969 337.523438 C 490.402344 337.523438 489.421875 337.113281 489.136719 335.539062 C 488.957031 334.5625 488.957031 333.042969 488.957031 332.0625 C 488.957031 331.003906 488.957031 329.921875 489.085938 329.046875 C 489.394531 327.089844 490.632812 326.933594 491.042969 326.933594 C 491.585938 326.933594 492.667969 327.242188 492.976562 328.867188 C 493.15625 329.792969 493.15625 331.03125 493.15625 332.0625 C 493.15625 333.300781 493.15625 334.40625 492.976562 335.464844 C 492.71875 337.035156 491.792969 337.523438 491.042969 337.523438 Z M 491.042969 337.523438 "/>
<path style=" stroke:none;fill-rule:nonzero;fill:rgb(0%,0%,0%);fill-opacity:1;" d="M 498.304688 336.648438 C 498.304688 336.183594 497.917969 335.773438 497.453125 335.773438 C 496.964844 335.773438 496.578125 336.183594 496.578125 336.648438 C 496.578125 337.136719 496.964844 337.523438 497.453125 337.523438 C 497.917969 337.523438 498.304688 337.136719 498.304688 336.648438 Z M 498.304688 336.648438 "/>
<path style=" stroke:none;fill-rule:nonzero;fill:rgb(0%,0%,0%);fill-opacity:1;" d="M 504.570312 334.820312 L 504.570312 336.238281 C 504.570312 336.828125 504.515625 337.007812 503.304688 337.007812 L 502.972656 337.007812 L 502.972656 337.523438 C 503.640625 337.472656 504.492188 337.472656 505.1875 337.472656 C 505.882812 337.472656 506.734375 337.472656 507.429688 337.523438 L 507.429688 337.007812 L 507.070312 337.007812 C 505.855469 337.007812 505.832031 336.828125 505.832031 336.238281 L 505.832031 334.820312 L 507.453125 334.820312 L 507.453125 334.304688 L 505.832031 334.304688 L 505.832031 326.832031 C 505.832031 326.496094 505.832031 326.394531 505.546875 326.394531 C 505.417969 326.394531 505.367188 326.394531 505.238281 326.597656 L 500.1875 334.304688 L 500.1875 334.820312 Z M 504.644531 334.304688 L 500.652344 334.304688 L 504.644531 328.171875 Z M 504.644531 334.304688 "/>
<path style=" stroke:none;fill-rule:nonzero;fill:rgb(0%,0%,0%);fill-opacity:1;" d="M 561.898438 332.269531 C 561.898438 330.953125 561.820312 329.640625 561.253906 328.429688 C 560.503906 326.832031 559.140625 326.574219 558.46875 326.574219 C 557.464844 326.574219 556.28125 327.011719 555.585938 328.53125 C 555.070312 329.664062 554.992188 330.953125 554.992188 332.269531 C 554.992188 333.503906 555.042969 334.972656 555.738281 336.238281 C 556.433594 337.550781 557.644531 337.886719 558.445312 337.886719 C 559.320312 337.886719 560.582031 337.550781 561.304688 335.980469 C 561.820312 334.84375 561.898438 333.554688 561.898438 332.269531 Z M 558.445312 337.523438 C 557.800781 337.523438 556.820312 337.113281 556.539062 335.539062 C 556.355469 334.5625 556.355469 333.042969 556.355469 332.0625 C 556.355469 331.003906 556.355469 329.921875 556.484375 329.046875 C 556.796875 327.089844 558.03125 326.933594 558.445312 326.933594 C 558.984375 326.933594 560.066406 327.242188 560.375 328.867188 C 560.558594 329.792969 560.558594 331.03125 560.558594 332.0625 C 560.558594 333.300781 560.558594 334.40625 560.375 335.464844 C 560.117188 337.035156 559.191406 337.523438 558.445312 337.523438 Z M 558.445312 337.523438 "/>
<path style=" stroke:none;fill-rule:nonzero;fill:rgb(0%,0%,0%);fill-opacity:1;" d="M 565.703125 336.648438 C 565.703125 336.183594 565.320312 335.773438 564.855469 335.773438 C 564.363281 335.773438 563.980469 336.183594 563.980469 336.648438 C 563.980469 337.136719 564.363281 337.523438 564.855469 337.523438 C 565.320312 337.523438 565.703125 337.136719 565.703125 336.648438 Z M 565.703125 336.648438 "/>
<path style=" stroke:none;fill-rule:nonzero;fill:rgb(0%,0%,0%);fill-opacity:1;" d="M 569.289062 332.140625 L 569.289062 331.726562 C 569.289062 327.578125 571.324219 326.984375 572.175781 326.984375 C 572.5625 326.984375 573.257812 327.089844 573.617188 327.65625 C 573.359375 327.65625 572.714844 327.65625 572.714844 328.378906 C 572.714844 328.890625 573.101562 329.148438 573.464844 329.148438 C 573.722656 329.148438 574.234375 328.996094 574.234375 328.351562 C 574.234375 327.371094 573.515625 326.574219 572.148438 326.574219 C 570.035156 326.574219 567.820312 328.6875 567.820312 332.320312 C 567.820312 336.726562 569.726562 337.886719 571.246094 337.886719 C 573.078125 337.886719 574.648438 336.339844 574.648438 334.175781 C 574.648438 332.085938 573.179688 330.515625 571.351562 330.515625 C 570.242188 330.515625 569.625 331.339844 569.289062 332.140625 Z M 571.246094 337.421875 C 570.214844 337.421875 569.726562 336.441406 569.625 336.183594 C 569.316406 335.410156 569.316406 334.097656 569.316406 333.8125 C 569.316406 332.527344 569.855469 330.875 571.324219 330.875 C 571.609375 330.875 572.355469 330.875 572.871094 331.90625 C 573.152344 332.5 573.152344 333.351562 573.152344 334.148438 C 573.152344 334.949219 573.152344 335.773438 572.871094 336.367188 C 572.382812 337.34375 571.632812 337.421875 571.246094 337.421875 Z M 571.246094 337.421875 "/>
<path style=" stroke:none;fill-rule:nonzero;fill:rgb(0%,0%,0%);fill-opacity:1;" d="M 629.296875 332.269531 C 629.296875 330.953125 629.21875 329.640625 628.652344 328.429688 C 627.90625 326.832031 626.539062 326.574219 625.871094 326.574219 C 624.863281 326.574219 623.679688 327.011719 622.984375 328.53125 C 622.46875 329.664062 622.390625 330.953125 622.390625 332.269531 C 622.390625 333.503906 622.441406 334.972656 623.136719 336.238281 C 623.835938 337.550781 625.046875 337.886719 625.84375 337.886719 C 626.71875 337.886719 627.984375 337.550781 628.703125 335.980469 C 629.21875 334.84375 629.296875 333.554688 629.296875 332.269531 Z M 625.84375 337.523438 C 625.199219 337.523438 624.21875 337.113281 623.9375 335.539062 C 623.757812 334.5625 623.757812 333.042969 623.757812 332.0625 C 623.757812 331.003906 623.757812 329.921875 623.886719 329.046875 C 624.195312 327.089844 625.433594 326.933594 625.84375 326.933594 C 626.386719 326.933594 627.46875 327.242188 627.777344 328.867188 C 627.957031 329.792969 627.957031 331.03125 627.957031 332.0625 C 627.957031 333.300781 627.957031 334.40625 627.777344 335.464844 C 627.519531 337.035156 626.589844 337.523438 625.84375 337.523438 Z M 625.84375 337.523438 "/>
<path style=" stroke:none;fill-rule:nonzero;fill:rgb(0%,0%,0%);fill-opacity:1;" d="M 633.105469 336.648438 C 633.105469 336.183594 632.71875 335.773438 632.253906 335.773438 C 631.765625 335.773438 631.378906 336.183594 631.378906 336.648438 C 631.378906 337.136719 631.765625 337.523438 632.253906 337.523438 C 632.71875 337.523438 633.105469 337.136719 633.105469 336.648438 Z M 633.105469 336.648438 "/>
<path style=" stroke:none;fill-rule:nonzero;fill:rgb(0%,0%,0%);fill-opacity:1;" d="M 637.203125 330 C 636.457031 329.511719 636.378906 328.96875 636.378906 328.6875 C 636.378906 327.679688 637.460938 326.984375 638.621094 326.984375 C 639.804688 326.984375 640.863281 327.835938 640.863281 329.019531 C 640.863281 329.976562 640.21875 330.746094 639.238281 331.316406 Z M 639.601562 331.574219 C 640.785156 330.953125 641.585938 330.105469 641.585938 329.019531 C 641.585938 327.5 640.140625 326.574219 638.648438 326.574219 C 636.996094 326.574219 635.65625 327.785156 635.65625 329.332031 C 635.65625 329.613281 635.683594 330.359375 636.378906 331.132812 C 636.558594 331.316406 637.179688 331.726562 637.589844 332.011719 C 636.636719 332.5 635.21875 333.402344 635.21875 335.050781 C 635.21875 336.777344 636.894531 337.886719 638.621094 337.886719 C 640.476562 337.886719 642.046875 336.519531 642.046875 334.769531 C 642.046875 334.175781 641.867188 333.429688 641.222656 332.730469 C 640.914062 332.398438 640.65625 332.242188 639.601562 331.574219 Z M 637.949219 332.269531 L 639.988281 333.554688 C 640.449219 333.867188 641.222656 334.355469 641.222656 335.359375 C 641.222656 336.570312 639.988281 337.421875 638.648438 337.421875 C 637.230469 337.421875 636.042969 336.417969 636.042969 335.050781 C 636.042969 334.097656 636.558594 333.042969 637.949219 332.269531 Z M 637.949219 332.269531 "/>
<path style=" stroke:none;fill-rule:nonzero;fill:rgb(0%,0%,0%);fill-opacity:1;" d="M 693.988281 327.011719 C 693.988281 326.597656 693.988281 326.574219 693.601562 326.574219 C 692.570312 327.628906 691.128906 327.628906 690.613281 327.628906 L 690.613281 328.144531 C 690.949219 328.144531 691.902344 328.144531 692.753906 327.707031 L 692.753906 336.238281 C 692.753906 336.828125 692.699219 337.007812 691.230469 337.007812 L 690.714844 337.007812 L 690.714844 337.523438 C 691.285156 337.472656 692.699219 337.472656 693.371094 337.472656 C 694.015625 337.472656 695.457031 337.472656 696.023438 337.523438 L 696.023438 337.007812 L 695.507812 337.007812 C 694.015625 337.007812 693.988281 336.828125 693.988281 336.238281 Z M 693.988281 327.011719 "/>
<path style=" stroke:none;fill-rule:nonzero;fill:rgb(0%,0%,0%);fill-opacity:1;" d="M 700.503906 336.648438 C 700.503906 336.183594 700.117188 335.773438 699.652344 335.773438 C 699.164062 335.773438 698.777344 336.183594 698.777344 336.648438 C 698.777344 337.136719 699.164062 337.523438 699.652344 337.523438 C 700.117188 337.523438 700.503906 337.136719 700.503906 336.648438 Z M 700.503906 336.648438 "/>
<path style=" stroke:none;fill-rule:nonzero;fill:rgb(0%,0%,0%);fill-opacity:1;" d="M 709.472656 332.269531 C 709.472656 330.953125 709.394531 329.640625 708.828125 328.429688 C 708.082031 326.832031 706.714844 326.574219 706.046875 326.574219 C 705.042969 326.574219 703.855469 327.011719 703.160156 328.53125 C 702.644531 329.664062 702.566406 330.953125 702.566406 332.269531 C 702.566406 333.503906 702.621094 334.972656 703.316406 336.238281 C 704.011719 337.550781 705.222656 337.886719 706.019531 337.886719 C 706.898438 337.886719 708.160156 337.550781 708.878906 335.980469 C 709.394531 334.84375 709.472656 333.554688 709.472656 332.269531 Z M 706.019531 337.523438 C 705.375 337.523438 704.398438 337.113281 704.113281 335.539062 C 703.933594 334.5625 703.933594 333.042969 703.933594 332.0625 C 703.933594 331.003906 703.933594 329.921875 704.0625 329.046875 C 704.371094 327.089844 705.609375 326.933594 706.019531 326.933594 C 706.5625 326.933594 707.644531 327.242188 707.953125 328.867188 C 708.132812 329.792969 708.132812 331.03125 708.132812 332.0625 C 708.132812 333.300781 708.132812 334.40625 707.953125 335.464844 C 707.695312 337.035156 706.769531 337.523438 706.019531 337.523438 Z M 706.019531 337.523438 "/>
<path style=" stroke:none;fill-rule:nonzero;fill:rgb(0%,0%,0%);fill-opacity:1;" d="M 336.386719 254.144531 C 336.386719 252.828125 336.308594 251.515625 335.742188 250.304688 C 334.992188 248.707031 333.628906 248.449219 332.957031 248.449219 C 331.953125 248.449219 330.769531 248.886719 330.070312 250.40625 C 329.558594 251.539062 329.480469 252.828125 329.480469 254.144531 C 329.480469 255.378906 329.53125 256.847656 330.226562 258.113281 C 330.921875 259.425781 332.132812 259.761719 332.933594 259.761719 C 333.808594 259.761719 335.070312 259.425781 335.792969 257.855469 C 336.308594 256.71875 336.386719 255.433594 336.386719 254.144531 Z M 332.933594 259.402344 C 332.289062 259.402344 331.308594 258.988281 331.027344 257.417969 C 330.84375 256.4375 330.84375 254.917969 330.84375 253.9375 C 330.84375 252.882812 330.84375 251.796875 330.972656 250.921875 C 331.28125 248.964844 332.519531 248.808594 332.933594 248.808594 C 333.472656 248.808594 334.554688 249.117188 334.863281 250.742188 C 335.046875 251.667969 335.046875 252.90625 335.046875 253.9375 C 335.046875 255.175781 335.046875 256.28125 334.863281 257.339844 C 334.605469 258.910156 333.679688 259.402344 332.933594 259.402344 Z M 332.933594 259.402344 "/>
<path style=" stroke:none;fill-rule:nonzero;fill:rgb(0%,0%,0%);fill-opacity:1;" d="M 340.191406 258.523438 C 340.191406 258.0625 339.804688 257.648438 339.34375 257.648438 C 338.851562 257.648438 338.464844 258.0625 338.464844 258.523438 C 338.464844 259.015625 338.851562 259.402344 339.34375 259.402344 C 339.804688 259.402344 340.191406 259.015625 340.191406 258.523438 Z M 340.191406 258.523438 "/>
<path style=" stroke:none;fill-rule:nonzero;fill:rgb(0%,0%,0%);fill-opacity:1;" d="M 343.699219 258.136719 L 345.453125 256.4375 C 348.003906 254.167969 348.980469 253.292969 348.980469 251.644531 C 348.980469 249.761719 347.511719 248.449219 345.503906 248.449219 C 343.648438 248.449219 342.4375 249.96875 342.4375 251.4375 C 342.4375 252.339844 343.261719 252.339844 343.3125 252.339844 C 343.597656 252.339844 344.164062 252.160156 344.164062 251.464844 C 344.164062 251.050781 343.855469 250.613281 343.289062 250.613281 C 343.160156 250.613281 343.132812 250.613281 343.082031 250.640625 C 343.441406 249.558594 344.34375 248.964844 345.296875 248.964844 C 346.792969 248.964844 347.488281 250.304688 347.488281 251.644531 C 347.488281 252.957031 346.6875 254.246094 345.761719 255.277344 L 342.617188 258.78125 C 342.4375 258.960938 342.4375 259.015625 342.4375 259.402344 L 348.542969 259.402344 L 348.980469 256.539062 L 348.59375 256.539062 C 348.492188 257.03125 348.390625 257.75 348.207031 258.007812 C 348.105469 258.136719 347.023438 258.136719 346.664062 258.136719 Z M 343.699219 258.136719 "/>
<path style=" stroke:none;fill-rule:nonzero;fill:rgb(0%,0%,0%);fill-opacity:1;" d="M 336.386719 194.132812 C 336.386719 192.816406 336.308594 191.503906 335.742188 190.292969 C 334.992188 188.695312 333.628906 188.4375 332.957031 188.4375 C 331.953125 188.4375 330.769531 188.875 330.070312 190.394531 C 329.558594 191.527344 329.480469 192.816406 329.480469 194.132812 C 329.480469 195.367188 329.53125 196.835938 330.226562 198.101562 C 330.921875 199.414062 332.132812 199.75 332.933594 199.75 C 333.808594 199.75 335.070312 199.414062 335.792969 197.84375 C 336.308594 196.707031 336.386719 195.417969 336.386719 194.132812 Z M 332.933594 199.386719 C 332.289062 199.386719 331.308594 198.976562 331.027344 197.402344 C 330.84375 196.425781 330.84375 194.902344 330.84375 193.925781 C 330.84375 192.867188 330.84375 191.785156 330.972656 190.910156 C 331.28125 188.953125 332.519531 188.796875 332.933594 188.796875 C 333.472656 188.796875 334.554688 189.105469 334.863281 190.730469 C 335.046875 191.65625 335.046875 192.894531 335.046875 193.925781 C 335.046875 195.160156 335.046875 196.269531 334.863281 197.328125 C 334.605469 198.898438 333.679688 199.386719 332.933594 199.386719 Z M 332.933594 199.386719 "/>
<path style=" stroke:none;fill-rule:nonzero;fill:rgb(0%,0%,0%);fill-opacity:1;" d="M 340.191406 198.511719 C 340.191406 198.046875 339.804688 197.636719 339.34375 197.636719 C 338.851562 197.636719 338.464844 198.046875 338.464844 198.511719 C 338.464844 199 338.851562 199.386719 339.34375 199.386719 C 339.804688 199.386719 340.191406 199 340.191406 198.511719 Z M 340.191406 198.511719 "/>
<path style=" stroke:none;fill-rule:nonzero;fill:rgb(0%,0%,0%);fill-opacity:1;" d="M 346.457031 196.683594 L 346.457031 198.101562 C 346.457031 198.691406 346.40625 198.871094 345.195312 198.871094 L 344.859375 198.871094 L 344.859375 199.386719 C 345.527344 199.335938 346.378906 199.335938 347.074219 199.335938 C 347.769531 199.335938 348.621094 199.335938 349.316406 199.386719 L 349.316406 198.871094 L 348.957031 198.871094 C 347.746094 198.871094 347.71875 198.691406 347.71875 198.101562 L 347.71875 196.683594 L 349.34375 196.683594 L 349.34375 196.167969 L 347.71875 196.167969 L 347.71875 188.695312 C 347.71875 188.359375 347.71875 188.253906 347.4375 188.253906 C 347.308594 188.253906 347.253906 188.253906 347.125 188.460938 L 342.078125 196.167969 L 342.078125 196.683594 Z M 346.535156 196.167969 L 342.539062 196.167969 L 346.535156 190.035156 Z M 346.535156 196.167969 "/>
<path style=" stroke:none;fill-rule:nonzero;fill:rgb(0%,0%,0%);fill-opacity:1;" d="M 336.386719 134.117188 C 336.386719 132.804688 336.308594 131.488281 335.742188 130.277344 C 334.992188 128.679688 333.628906 128.421875 332.957031 128.421875 C 331.953125 128.421875 330.769531 128.863281 330.070312 130.382812 C 329.558594 131.515625 329.480469 132.804688 329.480469 134.117188 C 329.480469 135.355469 329.53125 136.824219 330.226562 138.085938 C 330.921875 139.402344 332.132812 139.738281 332.933594 139.738281 C 333.808594 139.738281 335.070312 139.402344 335.792969 137.828125 C 336.308594 136.695312 336.386719 135.40625 336.386719 134.117188 Z M 332.933594 139.375 C 332.289062 139.375 331.308594 138.964844 331.027344 137.390625 C 330.84375 136.410156 330.84375 134.890625 330.84375 133.914062 C 330.84375 132.855469 330.84375 131.773438 330.972656 130.898438 C 331.28125 128.9375 332.519531 128.785156 332.933594 128.785156 C 333.472656 128.785156 334.554688 129.09375 334.863281 130.71875 C 335.046875 131.644531 335.046875 132.882812 335.046875 133.914062 C 335.046875 135.148438 335.046875 136.257812 334.863281 137.3125 C 334.605469 138.886719 333.679688 139.375 332.933594 139.375 Z M 332.933594 139.375 "/>
<path style=" stroke:none;fill-rule:nonzero;fill:rgb(0%,0%,0%);fill-opacity:1;" d="M 340.191406 138.5 C 340.191406 138.035156 339.804688 137.625 339.34375 137.625 C 338.851562 137.625 338.464844 138.035156 338.464844 138.5 C 338.464844 138.988281 338.851562 139.375 339.34375 139.375 C 339.804688 139.375 340.191406 138.988281 340.191406 138.5 Z M 340.191406 138.5 "/>
<path style=" stroke:none;fill-rule:nonzero;fill:rgb(0%,0%,0%);fill-opacity:1;" d="M 343.777344 133.988281 L 343.777344 133.578125 C 343.777344 129.429688 345.8125 128.835938 346.664062 128.835938 C 347.050781 128.835938 347.746094 128.9375 348.105469 129.507812 C 347.847656 129.507812 347.203125 129.507812 347.203125 130.226562 C 347.203125 130.742188 347.589844 131 347.949219 131 C 348.207031 131 348.722656 130.847656 348.722656 130.203125 C 348.722656 129.222656 348.003906 128.421875 346.636719 128.421875 C 344.523438 128.421875 342.308594 130.535156 342.308594 134.171875 C 342.308594 138.578125 344.214844 139.738281 345.734375 139.738281 C 347.566406 139.738281 349.136719 138.191406 349.136719 136.027344 C 349.136719 133.9375 347.667969 132.367188 345.839844 132.367188 C 344.730469 132.367188 344.113281 133.191406 343.777344 133.988281 Z M 345.734375 139.273438 C 344.703125 139.273438 344.214844 138.292969 344.113281 138.035156 C 343.800781 137.261719 343.800781 135.949219 343.800781 135.664062 C 343.800781 134.375 344.34375 132.726562 345.8125 132.726562 C 346.097656 132.726562 346.84375 132.726562 347.359375 133.757812 C 347.640625 134.351562 347.640625 135.199219 347.640625 136 C 347.640625 136.796875 347.640625 137.625 347.359375 138.214844 C 346.867188 139.195312 346.121094 139.273438 345.734375 139.273438 Z M 345.734375 139.273438 "/>
<path style=" stroke:none;fill-rule:nonzero;fill:rgb(0%,0%,0%);fill-opacity:1;" d="M 336.386719 74.105469 C 336.386719 72.792969 336.308594 71.476562 335.742188 70.265625 C 334.992188 68.667969 333.628906 68.410156 332.957031 68.410156 C 331.953125 68.410156 330.769531 68.847656 330.070312 70.371094 C 329.558594 71.503906 329.480469 72.792969 329.480469 74.105469 C 329.480469 75.34375 329.53125 76.8125 330.226562 78.074219 C 330.921875 79.390625 332.132812 79.722656 332.933594 79.722656 C 333.808594 79.722656 335.070312 79.390625 335.792969 77.816406 C 336.308594 76.683594 336.386719 75.394531 336.386719 74.105469 Z M 332.933594 79.363281 C 332.289062 79.363281 331.308594 78.949219 331.027344 77.378906 C 330.84375 76.398438 330.84375 74.878906 330.84375 73.898438 C 330.84375 72.84375 330.84375 71.761719 330.972656 70.886719 C 331.28125 68.925781 332.519531 68.773438 332.933594 68.773438 C 333.472656 68.773438 334.554688 69.082031 334.863281 70.703125 C 335.046875 71.632812 335.046875 72.871094 335.046875 73.898438 C 335.046875 75.136719 335.046875 76.246094 334.863281 77.300781 C 334.605469 78.875 333.679688 79.363281 332.933594 79.363281 Z M 332.933594 79.363281 "/>
<path style=" stroke:none;fill-rule:nonzero;fill:rgb(0%,0%,0%);fill-opacity:1;" d="M 340.191406 78.488281 C 340.191406 78.023438 339.804688 77.609375 339.34375 77.609375 C 338.851562 77.609375 338.464844 78.023438 338.464844 78.488281 C 338.464844 78.976562 338.851562 79.363281 339.34375 79.363281 C 339.804688 79.363281 340.191406 78.976562 340.191406 78.488281 Z M 340.191406 78.488281 "/>
<path style=" stroke:none;fill-rule:nonzero;fill:rgb(0%,0%,0%);fill-opacity:1;" d="M 344.292969 71.839844 C 343.542969 71.347656 343.46875 70.808594 343.46875 70.523438 C 343.46875 69.519531 344.550781 68.824219 345.710938 68.824219 C 346.894531 68.824219 347.949219 69.671875 347.949219 70.859375 C 347.949219 71.8125 347.308594 72.585938 346.328125 73.152344 Z M 346.6875 73.410156 C 347.875 72.792969 348.671875 71.941406 348.671875 70.859375 C 348.671875 69.339844 347.230469 68.410156 345.734375 68.410156 C 344.085938 68.410156 342.746094 69.621094 342.746094 71.167969 C 342.746094 71.453125 342.773438 72.199219 343.46875 72.972656 C 343.648438 73.152344 344.265625 73.566406 344.679688 73.847656 C 343.726562 74.339844 342.308594 75.238281 342.308594 76.890625 C 342.308594 78.617188 343.984375 79.722656 345.710938 79.722656 C 347.566406 79.722656 349.136719 78.359375 349.136719 76.605469 C 349.136719 76.011719 348.957031 75.265625 348.3125 74.570312 C 348.003906 74.234375 347.746094 74.082031 346.6875 73.410156 Z M 345.039062 74.105469 L 347.074219 75.394531 C 347.539062 75.703125 348.3125 76.195312 348.3125 77.199219 C 348.3125 78.410156 347.074219 79.261719 345.734375 79.261719 C 344.316406 79.261719 343.132812 78.253906 343.132812 76.890625 C 343.132812 75.9375 343.648438 74.878906 345.039062 74.105469 Z M 345.039062 74.105469 "/>
<path style=" stroke:none;fill-rule:nonzero;fill:rgb(0%,0%,0%);fill-opacity:1;" d="M 333.679688 8.835938 C 333.679688 8.425781 333.679688 8.398438 333.292969 8.398438 C 332.261719 9.457031 330.820312 9.457031 330.304688 9.457031 L 330.304688 9.96875 C 330.640625 9.96875 331.59375 9.96875 332.441406 9.53125 L 332.441406 18.0625 C 332.441406 18.65625 332.390625 18.835938 330.921875 18.835938 L 330.40625 18.835938 L 330.40625 19.351562 C 330.972656 19.300781 332.390625 19.300781 333.0625 19.300781 C 333.707031 19.300781 335.148438 19.300781 335.714844 19.351562 L 335.714844 18.835938 L 335.199219 18.835938 C 333.707031 18.835938 333.679688 18.65625 333.679688 18.0625 Z M 333.679688 8.835938 "/>
<path style=" stroke:none;fill-rule:nonzero;fill:rgb(0%,0%,0%);fill-opacity:1;" d="M 340.191406 18.472656 C 340.191406 18.011719 339.804688 17.597656 339.34375 17.597656 C 338.851562 17.597656 338.464844 18.011719 338.464844 18.472656 C 338.464844 18.964844 338.851562 19.351562 339.34375 19.351562 C 339.804688 19.351562 340.191406 18.964844 340.191406 18.472656 Z M 340.191406 18.472656 "/>
<path style=" stroke:none;fill-rule:nonzero;fill:rgb(0%,0%,0%);fill-opacity:1;" d="M 349.160156 14.09375 C 349.160156 12.78125 349.085938 11.464844 348.519531 10.253906 C 347.769531 8.65625 346.40625 8.398438 345.734375 8.398438 C 344.730469 8.398438 343.542969 8.835938 342.847656 10.355469 C 342.332031 11.492188 342.257812 12.78125 342.257812 14.09375 C 342.257812 15.332031 342.308594 16.800781 343.003906 18.0625 C 343.699219 19.375 344.910156 19.710938 345.710938 19.710938 C 346.585938 19.710938 347.847656 19.375 348.570312 17.804688 C 349.085938 16.671875 349.160156 15.382812 349.160156 14.09375 Z M 345.710938 19.351562 C 345.066406 19.351562 344.085938 18.9375 343.800781 17.367188 C 343.621094 16.386719 343.621094 14.867188 343.621094 13.886719 C 343.621094 12.832031 343.621094 11.75 343.75 10.871094 C 344.058594 8.914062 345.296875 8.757812 345.710938 8.757812 C 346.25 8.757812 347.332031 9.070312 347.640625 10.691406 C 347.820312 11.621094 347.820312 12.855469 347.820312 13.886719 C 347.820312 15.125 347.820312 16.234375 347.640625 17.289062 C 347.382812 18.859375 346.457031 19.351562 345.710938 19.351562 Z M 345.710938 19.351562 "/>
<g clip-path="url(#clip1)" clip-rule="nonzero">
<path style="fill:none;stroke-width:1.59404;stroke-linecap:butt;stroke-linejoin:miter;stroke:rgb(100%,0%,0%);stroke-opacity:1;stroke-miterlimit:10;" d="M -0.00121332 1.215215 L 0.818371 1.243637 L 1.640324 1.267322 L 2.455171 1.293376 L 3.277125 1.317061 L 4.096709 1.345483 L 4.913925 1.371537 L 6.553094 1.426013 L 7.37031 1.459172 L 8.189894 1.485226 L 9.009479 1.516017 L 9.826694 1.544439 L 10.646279 1.575229 L 11.468232 1.610757 L 12.287817 1.641548 L 13.105032 1.672339 L 14.744201 1.743394 L 15.561417 1.774185 L 16.381002 1.81445 L 17.202955 1.847609 L 18.017802 1.883137 L 19.65934 1.961298 L 20.474187 2.001562 L 21.29614 2.039459 L 22.115724 2.082092 L 22.93294 2.122357 L 24.572109 2.207623 L 25.389325 2.254994 L 26.208909 2.297627 L 27.030862 2.344997 L 27.845709 2.392367 L 28.667663 2.439738 L 29.487247 2.489477 L 30.304463 2.536847 L 31.943632 2.638693 L 32.765585 2.693169 L 33.580432 2.747645 L 35.22197 2.856597 L 36.036817 2.915809 L 36.85877 2.970285 L 37.678355 3.031867 L 38.49557 3.09108 L 40.134739 3.216611 L 40.951955 3.278192 L 42.593493 3.410829 L 43.40834 3.477148 L 45.049878 3.619259 L 45.867093 3.687946 L 47.506262 3.837162 L 48.323478 3.910586 L 49.143063 3.988747 L 49.962647 4.071645 L 50.779863 4.149806 L 51.599447 4.232704 L 52.421401 4.317971 L 53.240985 4.3985 L 54.058201 4.488504 L 54.877785 4.576139 L 55.69737 4.666143 L 56.514586 4.758515 L 58.156123 4.945628 L 58.97097 5.045105 L 60.612508 5.246429 L 61.427355 5.348275 L 63.068893 5.559073 L 63.886108 5.668025 L 65.525277 5.895402 L 66.342493 6.009091 L 67.162078 6.125148 L 67.984031 6.248311 L 68.798878 6.369106 L 70.440416 6.6178 L 71.257631 6.748068 L 72.8968 7.013342 L 73.716385 7.148347 L 74.533601 7.290458 L 75.353185 7.430201 L 76.175138 7.57468 L 76.989985 7.723897 L 77.811939 7.873113 L 78.631523 8.024698 L 79.448739 8.18102 L 80.268323 8.337342 L 81.087908 8.496033 L 81.905124 8.661829 L 83.546661 8.998158 L 84.361508 9.173428 L 85.183462 9.348698 L 86.003046 9.528706 L 86.820262 9.708713 L 88.459431 10.082938 L 89.276647 10.279525 L 90.096231 10.473744 L 90.915816 10.672699 L 91.733031 10.876391 L 92.552616 11.082452 L 93.374569 11.29325 L 94.194154 11.508785 L 95.011369 11.72432 L 95.830954 11.94696 L 96.650538 12.171969 L 97.467754 12.404084 L 99.109292 12.87305 L 99.924139 13.114639 L 100.743723 13.360964 L 101.565676 13.609659 L 102.380523 13.865458 L 104.022061 14.3889 L 104.839277 14.656543 L 105.658861 14.926553 L 106.478446 15.20367 L 107.295662 15.485523 L 108.937199 16.063441 L 109.752046 16.359505 L 110.574 16.660307 L 111.393584 16.965845 L 112.2108 17.27849 L 113.030384 17.595871 L 113.849969 17.91562 L 114.669553 18.242476 L 115.486769 18.571699 L 116.306354 18.908028 L 117.128307 19.253832 L 117.943154 19.599635 L 118.765107 19.950175 L 119.584692 20.31019 L 120.401907 20.67731 L 121.221492 21.046798 L 122.041076 21.423392 L 122.858292 21.804723 L 123.677877 22.188423 L 124.49983 22.583965 L 125.314677 22.986613 L 126.956215 23.799014 L 127.771062 24.22061 L 128.593015 24.642205 L 129.412599 25.070907 L 130.229815 25.509082 L 131.0494 25.949626 L 131.868984 26.404381 L 132.6862 26.856768 L 133.505784 27.318628 L 134.327737 27.785226 L 135.147322 28.263666 L 135.964538 28.742106 L 136.784122 29.232389 L 137.603707 29.727409 L 138.420922 30.227166 L 140.06246 31.250365 L 140.877307 31.773807 L 141.696892 32.301986 L 142.518845 32.842007 L 143.333692 33.37966 L 144.155645 33.931524 L 144.97523 34.490494 L 145.792445 35.051832 L 147.431614 36.200563 L 148.24883 36.785586 L 149.068415 37.375347 L 149.890368 37.974581 L 150.705215 38.578553 L 151.527168 39.191998 L 152.346753 39.812549 L 153.163968 40.437838 L 153.983553 41.074968 L 154.803137 41.716836 L 155.622722 42.361072 L 156.439938 43.017151 L 157.259522 43.677967 L 158.081475 44.345889 L 158.896322 45.025653 L 159.718276 45.703048 L 160.53786 46.394655 L 161.355076 47.090999 L 162.17466 47.801553 L 162.994245 48.505003 L 163.811461 49.220294 L 164.631045 49.942692 L 165.452998 50.672195 L 166.267845 51.406434 L 167.909383 52.898599 L 168.72423 53.654156 L 169.546183 54.41445 L 170.365768 55.184217 L 171.182983 55.958722 L 172.002568 56.735595 L 172.822152 57.519574 L 173.639368 58.313027 L 174.458953 59.106479 L 176.10049 60.71707 L 177.737291 62.353715 L 178.556875 63.177958 L 179.374091 64.00457 L 180.193675 64.835919 L 181.01326 65.676742 L 181.830476 66.519934 L 182.65006 67.367863 L 183.472013 68.220528 L 184.28686 69.0803 L 185.108814 69.937702 L 185.928398 70.802211 L 186.745614 71.669088 L 187.565198 72.540701 L 188.384783 73.419421 L 189.201999 74.29814 L 190.021583 75.181597 L 190.843536 76.067421 L 191.658383 76.953246 L 192.480337 77.843808 L 193.299921 78.739107 L 194.117137 79.636775 L 195.756306 81.434478 L 196.57589 82.336883 L 197.393106 83.244024 L 199.034644 85.055939 L 199.849491 85.963081 L 200.671444 86.867854 L 201.491029 87.782101 L 202.308244 88.691611 L 203.127829 89.60349 L 203.947413 90.517737 L 204.764629 91.420141 L 205.584213 92.324914 L 206.406167 93.239161 L 207.221014 94.153409 L 208.040598 95.055813 L 208.862551 95.97006 L 209.677398 96.877202 L 210.499352 97.781975 L 211.318936 98.684379 L 212.136152 99.593889 L 212.955736 100.496294 L 213.775321 101.391593 L 214.592537 102.293997 L 215.412121 103.189296 L 216.234074 104.086964 L 217.053659 104.972789 L 217.870875 105.863351 L 218.690459 106.746807 L 219.510044 107.635001 L 220.327259 108.51372 L 221.966428 110.261685 L 222.783644 111.133299 L 223.603229 111.99307 L 224.425182 112.857578 L 225.240029 113.707875 L 226.061982 114.56291 L 226.881567 115.410838 L 227.698782 116.251661 L 228.518367 117.090116 L 229.337951 117.926202 L 230.155167 118.75992 L 230.974752 119.579426 L 231.796705 120.40367 L 232.611552 121.211334 L 233.433505 122.023735 L 234.25309 122.821924 L 235.067937 123.622483 L 236.709474 125.199914 L 237.529059 125.976787 L 238.346275 126.756029 L 239.165859 127.516323 L 239.987812 128.281353 L 240.802659 129.03691 L 241.624612 129.782992 L 242.444197 130.524338 L 243.261413 131.263315 L 244.080997 131.997555 L 244.900582 132.719952 L 245.717797 133.42577 L 246.537382 134.145799 L 247.359335 134.839774 L 248.174182 135.54796 L 248.993767 136.222987 L 249.81572 136.912225 L 250.630567 137.587252 L 251.45252 138.259911 L 252.272105 138.923095 L 253.08932 139.572068 L 254.728489 140.867647 L 255.545705 141.497672 L 256.36529 142.12296 L 257.187243 142.750617 L 258.006827 143.356957 L 258.824043 143.970402 L 259.643628 144.562531 L 260.463212 145.152292 L 261.280428 145.732578 L 262.100012 146.322339 L 262.919597 146.888414 L 263.736813 147.447384 L 264.556397 148.008722 L 265.37835 148.551112 L 266.193197 149.102976 L 267.015151 149.640629 L 267.834735 150.161703 L 268.651951 150.685145 L 269.471535 151.208587 L 270.29112 151.715449 L 271.108336 152.208101 L 271.92792 152.707857 L 272.749873 153.195772 L 273.56472 153.67658 L 275.206258 154.631092 L 276.021105 155.090584 L 276.843058 155.535865 L 277.662643 155.992989 L 278.482227 156.43827 L 279.299443 156.86934 L 280.119027 157.298041 L 280.940981 157.724374 L 281.755828 158.138864 L 283.397365 158.965476 L 284.214581 159.356281 L 285.85375 160.137892 L 286.670966 160.52396 L 287.49055 160.89108 L 288.310135 161.262937 L 289.127351 161.637162 L 289.946935 161.997177 L 290.768888 162.340611 L 291.583735 162.69352 L 292.405689 163.039323 L 293.225273 163.375653 L 294.042489 163.700139 L 294.862073 164.029363 L 295.681658 164.351481 L 296.498874 164.664125 L 297.318458 164.976769 L 298.140411 165.277571 L 298.959996 165.58311 L 299.777212 165.876805 L 300.596796 166.168133 L 301.416381 166.457092 L 302.233596 166.736577 L 303.053181 167.013693 L 303.872765 167.281335 L 304.689981 167.551346 L 305.509566 167.81662 L 306.331519 168.074788 L 307.146366 168.328219 L 308.787904 168.830345 L 309.605119 169.067196 L 310.424704 169.308785 L 311.244288 169.540899 L 312.061504 169.770646 L 313.703042 170.215927 L 314.517889 170.431461 L 315.337473 170.649365 L 316.159426 170.860163 L 316.974273 171.063855 L 317.796227 171.267548 L 318.615811 171.466503 L 319.435396 171.670195 L 320.252611 171.857308 L 321.072196 172.046789 L 321.894149 172.231534 L 322.708996 172.416278 L 323.530949 172.593916 L 324.350534 172.766818 L 325.16775 172.942088 L 325.987334 173.11499 L 326.806919 173.283155 L 327.624134 173.446582 L 328.443719 173.607641 L 329.263303 173.763963 L 330.080519 173.915548 L 330.900104 174.067133 L 331.722057 174.223455 L 332.536904 174.363198 L 333.358857 174.510046 L 334.178442 174.649788 L 334.995657 174.789531 L 335.815242 174.926905 L 336.634826 175.059541 L 337.452042 175.192178 L 338.271627 175.322447 L 339.09358 175.44561 L 339.913164 175.575878 L 340.73038 175.691935 L 341.549965 175.812729 L 342.369549 175.931155 L 343.186765 176.047213 L 344.006349 176.160901 L 344.825934 176.269853 L 345.64315 176.378805 L 347.284687 176.591971 L 348.099534 176.696186 L 348.921487 176.798032 L 349.741072 176.895141 L 350.558288 176.99225 L 351.377872 177.091728 L 352.197457 177.1841 L 353.014672 177.274104 L 354.65621 177.454111 L 355.471057 177.539378 L 356.290642 177.627013 L 357.112595 177.707542 L 357.927442 177.785703 L 358.749395 177.875707 L 359.56898 177.946762 L 360.388564 178.027292 L 361.20578 178.103084 L 362.025364 178.181245 L 362.847318 178.249932 L 363.662165 178.320988 L 364.484118 178.394412 L 365.303702 178.463099 L 366.120918 178.531786 L 366.940503 178.595736 L 367.760087 178.662054 L 368.577303 178.728372 L 369.396887 178.789954 L 370.216472 178.849167 L 371.033688 178.910748 L 372.675225 179.029174 L 373.490072 179.086018 L 374.312026 179.138126 L 375.13161 179.197339 L 375.948826 179.247077 L 376.76841 179.296816 L 377.587995 179.353661 L 378.405211 179.403399 L 379.224795 179.453138 L 380.866333 179.547879 L 381.683549 179.595249 L 382.503133 179.644988 L 383.322717 179.685253 L 384.139933 179.732623 L 385.779102 179.81789 L 386.596318 179.860523 L 388.237856 179.938684 L 389.052703 179.97658 L 389.874656 180.021582 L 390.69424 180.054741 L 391.511456 180.090269 L 392.331041 180.130534 L 393.150625 180.166062 L 393.967841 180.199221 L 394.787425 180.234749 L 395.60701 180.263171 L 396.424226 180.301067 L 398.065763 180.365017 L 398.88061 180.391071 L 401.341733 180.485811 L 402.158948 180.516602 L 403.800486 180.571078 L 404.615333 180.5995 L 405.437286 180.625554 L 406.256871 180.644502 L 407.074087 180.672924 L 408.713256 180.720294 " transform="matrix(1.649083,0,0,-1.64924,25.646532,314.117462)"/>
<path style="fill:none;stroke-width:1.59404;stroke-linecap:butt;stroke-linejoin:miter;stroke:rgb(0%,0%,100%);stroke-opacity:1;stroke-miterlimit:10;" d="M -0.00121332 0.00964049 L 4.913925 0.00964049 L 5.733509 0.012009 L 11.468232 0.012009 L 12.287817 0.016746 L 16.381002 0.016746 L 17.202955 0.0214831 L 20.474187 0.0214831 L 21.29614 0.0238516 L 23.752525 0.0238516 L 24.572109 0.0285886 L 26.208909 0.0285886 L 27.030862 0.0333256 L 28.667663 0.0333256 L 29.487247 0.0356942 L 31.124047 0.0356942 L 31.943632 0.0404312 L 32.765585 0.0404312 L 33.580432 0.0451682 L 34.400017 0.0451682 L 35.22197 0.0475367 L 36.036817 0.0475367 L 36.85877 0.0522738 L 37.678355 0.0522738 L 38.49557 0.0546423 L 39.315155 0.0546423 L 40.134739 0.0593793 L 40.951955 0.0593793 L 42.593493 0.0664849 L 43.40834 0.0664849 L 45.049878 0.0759589 L 45.867093 0.0783274 L 46.686678 0.0783274 L 47.506262 0.0830645 L 48.323478 0.0878015 L 49.962647 0.0949071 L 50.779863 0.0996441 L 53.240985 0.111487 L 54.058201 0.113855 L 54.877785 0.123329 L 55.69737 0.125698 L 56.514586 0.130435 L 57.33417 0.13754 L 58.156123 0.142277 L 58.97097 0.149383 L 59.792924 0.15412 L 60.612508 0.161226 L 61.427355 0.165963 L 63.068893 0.180174 L 63.886108 0.189648 L 65.525277 0.203859 L 66.342493 0.210964 L 67.162078 0.220438 L 67.984031 0.232281 L 68.798878 0.239387 L 69.620831 0.246492 L 70.440416 0.258335 L 71.257631 0.270177 L 72.077216 0.28202 L 72.8968 0.289125 L 73.716385 0.305705 L 74.533601 0.317548 L 76.175138 0.341233 L 76.989985 0.355444 L 78.631523 0.388603 L 79.448739 0.402814 L 81.087908 0.433605 L 81.905124 0.454921 L 82.724708 0.47387 L 83.546661 0.490449 L 84.361508 0.511766 L 85.183462 0.533082 L 86.003046 0.556768 L 86.820262 0.575716 L 87.639846 0.599401 L 88.459431 0.625455 L 89.276647 0.64914 L 90.915816 0.703616 L 91.733031 0.732038 L 94.194154 0.82441 L 95.011369 0.859938 L 96.650538 0.930993 L 97.467754 0.968889 L 99.109292 1.04705 L 99.924139 1.092052 L 100.743723 1.134686 L 101.565676 1.179687 L 102.380523 1.231795 L 103.202477 1.279165 L 104.022061 1.333641 L 104.839277 1.38338 L 106.478446 1.501805 L 107.295662 1.55865 L 108.115246 1.624968 L 108.937199 1.688918 L 109.752046 1.759974 L 110.574 1.828661 L 111.393584 1.904453 L 112.2108 1.982614 L 113.030384 2.060775 L 114.669553 2.231308 L 115.486769 2.321312 L 116.306354 2.416053 L 117.128307 2.513162 L 117.943154 2.615008 L 118.765107 2.719223 L 119.584692 2.828174 L 120.401907 2.941863 L 121.221492 3.060289 L 122.041076 3.18582 L 122.858292 3.308983 L 123.677877 3.44162 L 124.49983 3.583731 L 125.314677 3.723473 L 126.956215 4.029012 L 127.771062 4.192439 L 128.593015 4.355867 L 129.412599 4.531137 L 130.229815 4.711144 L 131.0494 4.900626 L 131.868984 5.094844 L 132.6862 5.298536 L 133.505784 5.504597 L 134.327737 5.724869 L 135.147322 5.949878 L 135.964538 6.189098 L 136.784122 6.430687 L 137.603707 6.684118 L 138.420922 6.947023 L 139.240507 7.219403 L 140.06246 7.501256 L 140.877307 7.797321 L 141.696892 8.102859 L 142.518845 8.415503 L 143.333692 8.742358 L 144.155645 9.083425 L 144.97523 9.433965 L 145.792445 9.801085 L 146.61203 10.180048 L 147.431614 10.570853 L 148.24883 10.978237 L 149.068415 11.399833 L 149.890368 11.838009 L 150.705215 12.285658 L 151.527168 12.754624 L 152.346753 13.235433 L 153.163968 13.739927 L 153.983553 14.253895 L 154.803137 14.789179 L 155.622722 15.345781 L 156.439938 15.918961 L 157.259522 16.508722 L 158.081475 17.122168 L 158.896322 17.752193 L 159.718276 18.408272 L 160.53786 19.078562 L 161.355076 19.774905 L 162.17466 20.492566 L 162.994245 21.231543 L 163.811461 21.996573 L 164.631045 22.785289 L 165.452998 23.595321 L 166.267845 24.42667 L 167.089799 25.286442 L 167.909383 26.172267 L 168.72423 27.084145 L 169.546183 28.024446 L 170.365768 28.986063 L 171.182983 29.973735 L 172.002568 30.992196 L 172.822152 32.036712 L 173.639368 33.109649 L 174.458953 34.208641 L 175.280906 35.333686 L 176.10049 36.489522 L 176.917706 37.67378 L 177.737291 38.888828 L 178.556875 40.125193 L 179.374091 41.392349 L 180.193675 42.687928 L 181.01326 44.011928 L 181.830476 45.364351 L 182.65006 46.742827 L 183.472013 48.144988 L 184.28686 49.580309 L 185.108814 51.039314 L 185.928398 52.524374 L 186.745614 54.033119 L 187.565198 55.567917 L 188.384783 57.1264 L 189.201999 58.708569 L 190.021583 60.314423 L 190.843536 61.939224 L 191.658383 63.587711 L 192.480337 65.255147 L 193.299921 66.94153 L 194.117137 68.644493 L 194.936721 70.368772 L 195.756306 72.102526 L 196.57589 73.857596 L 197.393106 75.62214 L 198.212691 77.398527 L 199.034644 79.184388 L 199.849491 80.982092 L 200.671444 82.786901 L 201.491029 84.598816 L 202.308244 86.415467 L 203.127829 88.232119 L 203.947413 90.055876 L 204.764629 91.867791 L 205.584213 93.691548 L 206.406167 95.512937 L 207.221014 97.331957 L 208.040598 99.141503 L 208.862551 100.946312 L 209.677398 102.739278 L 210.499352 104.527508 L 211.318936 106.306263 L 212.136152 108.075545 L 212.955736 109.825878 L 213.775321 111.559631 L 214.592537 113.28628 L 215.412121 114.989242 L 216.234074 116.680363 L 217.053659 118.340692 L 217.870875 119.984442 L 218.690459 121.618718 L 219.510044 123.224572 L 220.327259 124.806741 L 221.146844 126.365224 L 221.966428 127.902391 L 222.783644 129.415872 L 223.603229 130.896195 L 224.425182 132.352832 L 225.240029 133.79289 L 226.061982 135.192683 L 226.881567 136.575896 L 227.698782 137.923581 L 228.518367 139.24995 L 229.337951 140.54316 L 230.155167 141.810316 L 230.974752 143.051418 L 231.796705 144.266467 L 232.611552 145.443619 L 233.433505 146.606561 L 234.25309 147.731606 L 235.067937 148.832965 L 235.88989 149.903535 L 236.709474 150.945682 L 237.529059 151.966512 L 238.346275 152.949446 L 239.165859 153.918169 L 239.987812 154.853733 L 240.802659 155.765611 L 241.624612 156.653805 L 242.444197 157.504102 L 243.261413 158.344925 L 244.080997 159.162063 L 244.900582 159.946042 L 245.717797 160.708704 L 246.537382 161.450049 L 247.359335 162.170078 L 248.174182 162.86879 L 248.993767 163.53908 L 249.81572 164.188054 L 250.630567 164.829921 L 251.45252 165.426787 L 252.272105 166.021285 L 253.08932 166.589729 L 253.908905 167.148698 L 254.728489 167.68872 L 255.545705 168.20032 L 256.36529 168.704813 L 257.187243 169.185622 L 258.006827 169.654588 L 258.824043 170.106975 L 259.643628 170.54515 L 260.463212 170.962009 L 261.280428 171.369394 L 262.100012 171.75783 L 262.919597 172.134424 L 263.736813 172.503913 L 264.556397 172.856822 L 265.37835 173.195519 L 266.193197 173.524743 L 267.015151 173.839756 L 267.834735 174.145294 L 268.651951 174.43899 L 269.471535 174.723212 L 270.29112 174.993223 L 271.108336 175.258497 L 271.92792 175.509559 L 272.749873 175.755885 L 273.56472 175.990368 L 274.386674 176.215377 L 275.206258 176.435649 L 276.021105 176.646447 L 276.843058 176.847771 L 277.662643 177.039621 L 278.482227 177.226733 L 279.299443 177.406741 L 280.119027 177.582011 L 280.940981 177.750175 L 281.755828 177.911235 L 282.577781 178.067557 L 283.397365 178.212036 L 284.214581 178.361253 L 285.034166 178.496258 L 285.85375 178.628895 L 286.670966 178.759163 L 288.310135 179.000752 L 289.127351 179.109704 L 289.946935 179.223392 L 290.768888 179.329976 L 291.583735 179.427085 L 293.225273 179.621303 L 294.042489 179.708938 L 295.681658 179.879471 L 296.498874 179.957632 L 297.318458 180.035793 L 298.140411 180.111586 L 298.959996 180.180273 L 299.777212 180.251328 L 300.596796 180.31291 L 301.416381 180.379228 L 302.233596 180.438441 L 303.053181 180.497654 L 303.872765 180.55213 L 304.689981 180.611343 L 306.331519 180.71082 L 307.146366 180.762928 L 307.968319 180.800824 L 308.787904 180.848194 L 309.605119 180.890827 L 311.244288 180.968988 L 312.061504 181.009253 L 313.703042 181.080309 L 314.517889 181.113468 L 315.337473 181.148996 L 316.159426 181.177418 L 316.974273 181.208209 L 317.796227 181.234262 L 318.615811 181.267421 L 319.435396 181.291107 L 320.252611 181.312423 L 321.894149 181.369268 L 322.708996 181.383479 L 323.530949 181.407164 L 324.350534 181.426112 L 325.16775 181.454534 L 325.987334 181.466377 L 326.806919 181.485325 L 327.624134 181.504273 L 328.443719 181.520853 L 329.263303 181.539801 L 330.080519 181.551643 L 331.722057 181.582434 L 332.536904 181.594277 L 334.178442 181.625067 L 334.995657 181.63691 L 335.815242 181.648753 L 336.634826 181.658227 L 337.452042 181.672438 L 338.271627 181.681912 L 339.09358 181.691386 L 339.913164 181.70086 L 340.73038 181.712702 L 341.549965 181.715071 L 342.369549 181.726914 L 343.186765 181.736388 L 344.825934 181.750599 L 345.64315 181.762441 L 346.462734 181.762441 L 347.284687 181.774284 L 348.099534 181.779021 L 349.741072 181.793232 L 350.558288 181.797969 L 351.377872 181.802706 L 352.197457 181.809812 L 353.014672 181.816917 L 353.834257 181.816917 L 354.65621 181.821654 L 355.471057 181.826391 L 356.290642 181.826391 L 357.112595 181.840602 L 357.927442 181.840602 L 360.388564 181.852445 L 361.20578 181.857182 L 362.025364 181.85955 L 362.847318 181.85955 L 363.662165 181.864287 L 364.484118 181.869024 L 365.303702 181.869024 L 366.120918 181.871393 L 366.940503 181.87613 L 367.760087 181.87613 L 368.577303 181.880867 L 370.216472 181.880867 L 371.033688 181.883236 L 371.853272 181.89271 L 372.675225 181.895078 L 373.490072 181.895078 L 374.312026 181.899815 L 375.948826 181.899815 L 376.76841 181.904552 L 377.587995 181.904552 L 378.405211 181.906921 L 382.503133 181.906921 L 383.322717 181.914026 L 389.052703 181.914026 L 389.874656 181.9235 L 392.331041 181.9235 L 393.150625 181.925869 L 404.615333 181.925869 L 405.437286 181.930606 L 408.713256 181.930606 " transform="matrix(1.649083,0,0,-1.64924,25.646532,314.117462)"/>
</g>
<path style=" stroke:none;fill-rule:nonzero;fill:rgb(0%,0%,0%);fill-opacity:1;" d="M 690.007812 304.449219 C 690.496094 303.828125 691.117188 303.03125 691.527344 302.59375 C 692.042969 302 692.714844 301.742188 693.488281 301.742188 L 693.488281 301.226562 C 693.046875 301.253906 692.558594 301.277344 692.121094 301.277344 C 691.632812 301.277344 690.753906 301.253906 690.550781 301.226562 L 690.550781 301.742188 C 690.910156 301.769531 691.039062 301.972656 691.039062 302.257812 C 691.039062 302.515625 690.859375 302.722656 690.78125 302.824219 L 689.777344 304.113281 L 688.488281 302.4375 C 688.332031 302.285156 688.332031 302.257812 688.332031 302.15625 C 688.332031 301.898438 688.589844 301.742188 688.898438 301.742188 L 688.898438 301.226562 C 688.488281 301.253906 687.40625 301.277344 687.121094 301.277344 C 686.789062 301.277344 686.015625 301.253906 685.578125 301.226562 L 685.578125 301.742188 C 686.734375 301.742188 686.734375 301.742188 687.507812 302.746094 L 689.132812 304.859375 L 687.585938 306.820312 C 686.8125 307.773438 685.832031 307.796875 685.5 307.796875 L 685.5 308.3125 C 685.910156 308.289062 686.425781 308.261719 686.863281 308.261719 C 687.328125 308.261719 688.023438 308.289062 688.410156 308.3125 L 688.410156 307.796875 C 688.050781 307.746094 687.945312 307.539062 687.945312 307.28125 C 687.945312 306.921875 688.410156 306.382812 689.414062 305.195312 L 690.679688 306.84375 C 690.808594 307.023438 691.011719 307.28125 691.011719 307.386719 C 691.011719 307.539062 690.859375 307.796875 690.421875 307.796875 L 690.421875 308.3125 C 690.910156 308.289062 691.835938 308.261719 692.199219 308.261719 C 692.636719 308.261719 693.28125 308.289062 693.769531 308.3125 L 693.769531 307.796875 C 692.894531 307.796875 692.585938 307.773438 692.222656 307.28125 Z M 690.007812 304.449219 "/>
<path style=" stroke:none;fill-rule:nonzero;fill:rgb(0%,0%,0%);fill-opacity:1;" d="M 375.355469 21.355469 C 375.769531 20.300781 376.617188 20.300781 376.875 20.300781 L 376.875 19.785156 C 376.488281 19.808594 376.023438 19.835938 375.640625 19.835938 C 375.355469 19.835938 374.582031 19.808594 374.222656 19.785156 L 374.222656 20.300781 C 374.738281 20.300781 374.996094 20.582031 374.996094 20.996094 C 374.996094 21.175781 374.96875 21.203125 374.890625 21.40625 L 373.214844 25.429688 L 371.414062 21.019531 C 371.335938 20.839844 371.308594 20.789062 371.308594 20.710938 C 371.308594 20.300781 371.902344 20.300781 372.238281 20.300781 L 372.238281 19.785156 C 371.800781 19.808594 370.71875 19.835938 370.433594 19.835938 C 369.996094 19.835938 369.324219 19.808594 368.835938 19.785156 L 368.835938 20.300781 C 369.636719 20.300781 369.945312 20.300781 370.175781 20.867188 L 372.648438 26.871094 C 372.546875 27.078125 372.316406 27.617188 372.238281 27.851562 C 371.875 28.753906 371.414062 29.886719 370.355469 29.886719 C 370.277344 29.886719 369.894531 29.886719 369.582031 29.578125 C 370.097656 29.523438 370.226562 29.164062 370.226562 28.882812 C 370.226562 28.46875 369.917969 28.210938 369.53125 28.210938 C 369.195312 28.210938 368.835938 28.417969 368.835938 28.90625 C 368.835938 29.652344 369.53125 30.246094 370.355469 30.246094 C 371.386719 30.246094 372.058594 29.292969 372.445312 28.367188 Z M 375.355469 21.355469 "/>
<path style="fill-rule:nonzero;fill:rgb(100%,100%,100%);fill-opacity:1;stroke-width:0.3985;stroke-linecap:butt;stroke-linejoin:miter;stroke:rgb(0%,0%,0%);stroke-opacity:1;stroke-miterlimit:10;" d="M 12.460735 144.505687 L 105.73703 144.505687 L 105.73703 176.286433 L 12.460735 176.286433 Z M 12.460735 144.505687 " transform="matrix(1.649083,0,0,-1.64924,25.646532,314.117462)"/>
<path style="fill:none;stroke-width:1.59404;stroke-linecap:butt;stroke-linejoin:miter;stroke:rgb(100%,0%,0%);stroke-opacity:1;stroke-miterlimit:10;" d="M -0.0000166898 -0.000451729 L 17.007546 -0.000451729 " transform="matrix(1.649083,0,0,-1.64924,52.437528,38.132067)"/>
<path style=" stroke:none;fill-rule:nonzero;fill:rgb(0%,0%,0%);fill-opacity:1;" d="M 93.21875 37.269531 L 94.636719 37.269531 C 94.96875 37.269531 95.125 37.269531 95.125 36.933594 C 95.125 36.753906 94.96875 36.753906 94.6875 36.753906 L 93.320312 36.753906 L 93.65625 34.871094 C 93.734375 34.539062 93.964844 33.378906 94.070312 33.171875 C 94.195312 32.863281 94.480469 32.605469 94.839844 32.605469 C 94.894531 32.605469 95.332031 32.605469 95.640625 32.914062 C 94.917969 32.964844 94.738281 33.558594 94.738281 33.789062 C 94.738281 34.175781 95.046875 34.382812 95.355469 34.382812 C 95.792969 34.382812 96.257812 33.996094 96.257812 33.378906 C 96.257812 32.628906 95.511719 32.242188 94.839844 32.242188 C 94.273438 32.242188 93.242188 32.554688 92.753906 34.175781 C 92.652344 34.511719 92.601562 34.691406 92.214844 36.753906 L 91.078125 36.753906 C 90.746094 36.753906 90.5625 36.753906 90.5625 37.0625 C 90.5625 37.269531 90.71875 37.269531 91.027344 37.269531 L 92.109375 37.269531 L 90.898438 43.761719 C 90.589844 45.359375 90.304688 46.855469 89.457031 46.855469 C 89.378906 46.855469 88.992188 46.855469 88.65625 46.546875 C 89.429688 46.496094 89.585938 45.902344 89.585938 45.667969 C 89.585938 45.28125 89.277344 45.078125 88.964844 45.078125 C 88.527344 45.078125 88.066406 45.464844 88.066406 46.082031 C 88.066406 46.804688 88.785156 47.214844 89.457031 47.214844 C 90.359375 47.214844 91.027344 46.238281 91.3125 45.617188 C 91.851562 44.585938 92.214844 42.601562 92.238281 42.472656 Z M 93.21875 37.269531 "/>
<path style=" stroke:none;fill-rule:nonzero;fill:rgb(0%,0%,0%);fill-opacity:1;" d="M 102.4375 47.78125 C 102.4375 47.730469 102.4375 47.707031 102.152344 47.421875 C 100.117188 45.359375 99.578125 42.242188 99.578125 39.71875 C 99.578125 36.855469 100.195312 33.996094 102.230469 31.960938 C 102.4375 31.753906 102.4375 31.726562 102.4375 31.675781 C 102.4375 31.546875 102.386719 31.496094 102.28125 31.496094 C 102.101562 31.496094 100.632812 32.628906 99.65625 34.71875 C 98.832031 36.523438 98.625 38.351562 98.625 39.71875 C 98.625 41.003906 98.804688 42.988281 99.707031 44.871094 C 100.710938 46.882812 102.101562 47.964844 102.28125 47.964844 C 102.386719 47.964844 102.4375 47.910156 102.4375 47.78125 Z M 102.4375 47.78125 "/>
<path style=" stroke:none;fill-rule:nonzero;fill:rgb(0%,0%,0%);fill-opacity:1;" d="M 108.878906 38.867188 C 108.980469 38.453125 109.367188 36.933594 110.5 36.933594 C 110.578125 36.933594 110.992188 36.933594 111.324219 37.140625 C 110.863281 37.242188 110.550781 37.628906 110.550781 38.042969 C 110.550781 38.300781 110.734375 38.609375 111.171875 38.609375 C 111.53125 38.609375 112.046875 38.324219 112.046875 37.65625 C 112.046875 36.804688 111.09375 36.574219 110.527344 36.574219 C 109.574219 36.574219 109.007812 37.449219 108.800781 37.808594 C 108.386719 36.726562 107.511719 36.574219 107.023438 36.574219 C 105.320312 36.574219 104.367188 38.6875 104.367188 39.097656 C 104.367188 39.277344 104.546875 39.277344 104.574219 39.277344 C 104.703125 39.277344 104.753906 39.226562 104.78125 39.097656 C 105.347656 37.347656 106.429688 36.933594 106.996094 36.933594 C 107.304688 36.933594 107.871094 37.089844 107.871094 38.042969 C 107.871094 38.558594 107.589844 39.640625 106.996094 41.957031 C 106.738281 42.964844 106.144531 43.660156 105.425781 43.660156 C 105.320312 43.660156 104.960938 43.660156 104.601562 43.453125 C 105.011719 43.351562 105.375 43.015625 105.375 42.550781 C 105.375 42.113281 105.011719 41.984375 104.78125 41.984375 C 104.265625 41.984375 103.878906 42.398438 103.878906 42.9375 C 103.878906 43.683594 104.675781 44.019531 105.398438 44.019531 C 106.507812 44.019531 107.101562 42.859375 107.125 42.785156 C 107.332031 43.375 107.925781 44.019531 108.902344 44.019531 C 110.605469 44.019531 111.53125 41.90625 111.53125 41.496094 C 111.53125 41.316406 111.402344 41.316406 111.351562 41.316406 C 111.195312 41.316406 111.171875 41.390625 111.121094 41.496094 C 110.578125 43.273438 109.46875 43.660156 108.953125 43.660156 C 108.3125 43.660156 108.054688 43.144531 108.054688 42.578125 C 108.054688 42.214844 108.128906 41.855469 108.3125 41.132812 Z M 108.878906 38.867188 "/>
<path style=" stroke:none;fill-rule:nonzero;fill:rgb(0%,0%,0%);fill-opacity:1;" d="M 117.519531 39.71875 C 117.519531 38.453125 117.339844 36.46875 116.4375 34.589844 C 115.457031 32.578125 114.042969 31.496094 113.886719 31.496094 C 113.785156 31.496094 113.707031 31.574219 113.707031 31.675781 C 113.707031 31.726562 113.707031 31.753906 114.015625 32.0625 C 115.640625 33.6875 116.566406 36.289062 116.566406 39.71875 C 116.566406 42.550781 115.972656 45.4375 113.9375 47.5 C 113.707031 47.707031 113.707031 47.730469 113.707031 47.78125 C 113.707031 47.886719 113.785156 47.964844 113.886719 47.964844 C 114.042969 47.964844 115.535156 46.828125 116.488281 44.742188 C 117.339844 42.9375 117.519531 41.109375 117.519531 39.71875 Z M 117.519531 39.71875 "/>
<path style=" stroke:none;fill-rule:nonzero;fill:rgb(0%,0%,0%);fill-opacity:1;" d="M 135.023438 38.453125 C 135.277344 38.453125 135.589844 38.453125 135.589844 38.144531 C 135.589844 37.808594 135.277344 37.808594 135.046875 37.808594 L 125.203125 37.808594 C 124.972656 37.808594 124.664062 37.808594 124.664062 38.144531 C 124.664062 38.453125 124.972656 38.453125 125.203125 38.453125 Z M 135.046875 41.648438 C 135.277344 41.648438 135.589844 41.648438 135.589844 41.316406 C 135.589844 41.003906 135.277344 41.003906 135.023438 41.003906 L 125.203125 41.003906 C 124.972656 41.003906 124.664062 41.003906 124.664062 41.316406 C 124.664062 41.648438 124.972656 41.648438 125.203125 41.648438 Z M 135.046875 41.648438 "/>
<path style=" stroke:none;fill-rule:nonzero;fill:rgb(0%,0%,0%);fill-opacity:1;" d="M 165.949219 30.050781 C 165.949219 29.742188 165.949219 29.742188 165.617188 29.742188 C 164.867188 30.464844 163.835938 30.464844 163.375 30.464844 L 163.375 30.875 C 163.632812 30.875 164.40625 30.875 165.023438 30.566406 L 165.023438 36.417969 C 165.023438 36.804688 165.023438 36.957031 163.890625 36.957031 L 163.453125 36.957031 L 163.453125 37.371094 C 163.65625 37.371094 165.074219 37.320312 165.488281 37.320312 C 165.847656 37.320312 167.289062 37.371094 167.546875 37.371094 L 167.546875 36.957031 L 167.109375 36.957031 C 165.949219 36.957031 165.949219 36.804688 165.949219 36.417969 Z M 165.949219 30.050781 "/>
<path style="fill:none;stroke-width:0.398;stroke-linecap:butt;stroke-linejoin:miter;stroke:rgb(0%,0%,0%);stroke-opacity:1;stroke-miterlimit:10;" d="M 0.00130668 0.000825288 L 27.09497 0.000825288 " transform="matrix(1.649083,0,0,-1.64924,143.04472,39.73183)"/>
<path style=" stroke:none;fill-rule:nonzero;fill:rgb(0%,0%,0%);fill-opacity:1;" d="M 146.882812 42.1875 C 146.882812 41.878906 146.882812 41.878906 146.550781 41.878906 C 145.800781 42.601562 144.769531 42.601562 144.308594 42.601562 L 144.308594 43.011719 C 144.566406 43.011719 145.339844 43.011719 145.957031 42.703125 L 145.957031 48.554688 C 145.957031 48.941406 145.957031 49.09375 144.824219 49.09375 L 144.382812 49.09375 L 144.382812 49.507812 C 144.589844 49.507812 146.007812 49.457031 146.421875 49.457031 C 146.78125 49.457031 148.222656 49.507812 148.480469 49.507812 L 148.480469 49.09375 L 148.042969 49.09375 C 146.882812 49.09375 146.882812 48.941406 146.882812 48.554688 Z M 146.882812 42.1875 "/>
<path style=" stroke:none;fill-rule:nonzero;fill:rgb(0%,0%,0%);fill-opacity:1;" d="M 154.902344 46.902344 L 158.433594 46.902344 C 158.585938 46.902344 158.84375 46.902344 158.84375 46.644531 C 158.84375 46.335938 158.585938 46.335938 158.433594 46.335938 L 154.902344 46.335938 L 154.902344 42.808594 C 154.902344 42.679688 154.902344 42.394531 154.644531 42.394531 C 154.359375 42.394531 154.359375 42.652344 154.359375 42.808594 L 154.359375 46.335938 L 150.832031 46.335938 C 150.675781 46.335938 150.394531 46.335938 150.394531 46.621094 C 150.394531 46.902344 150.652344 46.902344 150.832031 46.902344 L 154.359375 46.902344 L 154.359375 50.433594 C 154.359375 50.589844 154.359375 50.871094 154.617188 50.871094 C 154.902344 50.871094 154.902344 50.589844 154.902344 50.433594 Z M 154.902344 46.902344 "/>
<path style=" stroke:none;fill-rule:nonzero;fill:rgb(0%,0%,0%);fill-opacity:1;" d="M 162.253906 46.878906 C 162.566406 46.878906 163.492188 46.851562 164.109375 46.644531 C 164.960938 46.335938 165.117188 45.796875 165.117188 45.460938 C 165.117188 44.816406 164.472656 44.429688 163.699219 44.429688 C 162.308594 44.429688 160.453125 45.488281 160.453125 47.472656 C 160.453125 48.628906 161.171875 49.609375 162.511719 49.609375 C 164.472656 49.609375 165.375 48.476562 165.375 48.320312 C 165.375 48.246094 165.269531 48.117188 165.167969 48.117188 C 165.117188 48.117188 165.089844 48.140625 164.988281 48.246094 C 164.085938 49.300781 162.746094 49.300781 162.539062 49.300781 C 161.84375 49.300781 161.378906 48.835938 161.378906 47.910156 C 161.378906 47.753906 161.378906 47.523438 161.535156 46.878906 Z M 161.613281 46.570312 C 162.101562 44.894531 163.363281 44.765625 163.699219 44.765625 C 164.1875 44.765625 164.625 45.023438 164.625 45.460938 C 164.625 46.570312 162.667969 46.570312 162.179688 46.570312 Z M 161.613281 46.570312 "/>
<path style=" stroke:none;fill-rule:nonzero;fill:rgb(0%,0%,0%);fill-opacity:1;" d="M 173.152344 44.390625 C 173.28125 44.390625 173.488281 44.390625 173.488281 44.160156 C 173.488281 43.925781 173.28125 43.925781 173.152344 43.925781 L 167.585938 43.925781 C 167.457031 43.925781 167.226562 43.925781 167.226562 44.160156 C 167.226562 44.390625 167.457031 44.390625 167.585938 44.390625 Z M 173.152344 44.390625 "/>
<path style=" stroke:none;fill-rule:nonzero;fill:rgb(0%,0%,0%);fill-opacity:1;" d="M 176.4375 41.683594 C 176.847656 41.789062 177.234375 41.789062 177.3125 41.789062 C 177.878906 41.789062 178.292969 41.632812 178.496094 41.53125 C 178.703125 41.425781 179.269531 41.066406 179.269531 40.886719 C 179.269531 40.757812 179.167969 40.757812 179.140625 40.757812 C 179.117188 40.757812 179.117188 40.757812 179.011719 40.78125 C 178.703125 40.886719 178.1875 41.015625 177.648438 41.015625 C 177.183594 41.015625 176.746094 40.9375 176.308594 40.78125 C 176.203125 40.757812 176.203125 40.757812 176.179688 40.757812 C 176.050781 40.757812 176.050781 40.835938 176.050781 40.964844 L 176.050781 43.4375 C 176.050781 43.589844 176.050781 43.695312 176.230469 43.695312 C 176.308594 43.695312 176.308594 43.667969 176.382812 43.589844 C 176.695312 43.230469 177.132812 43.050781 177.699219 43.050781 C 178.164062 43.050781 178.445312 43.308594 178.550781 43.488281 C 178.730469 43.773438 178.78125 44.132812 178.78125 44.546875 C 178.78125 44.878906 178.753906 45.34375 178.421875 45.652344 C 178.058594 46.039062 177.59375 46.066406 177.414062 46.066406 C 176.875 46.066406 176.28125 45.832031 176.023438 45.34375 C 176.359375 45.316406 176.488281 45.085938 176.488281 44.878906 C 176.488281 44.621094 176.28125 44.417969 176.023438 44.417969 C 175.84375 44.417969 175.558594 44.546875 175.558594 44.90625 C 175.558594 45.730469 176.359375 46.398438 177.414062 46.398438 C 178.652344 46.398438 179.65625 45.574219 179.65625 44.570312 C 179.65625 43.644531 178.859375 42.765625 177.722656 42.765625 C 177.207031 42.765625 176.769531 42.894531 176.4375 43.179688 Z M 176.4375 41.683594 "/>
<path style=" stroke:none;fill-rule:nonzero;fill:rgb(0%,0%,0%);fill-opacity:1;" d="M 185.503906 43 C 185.117188 43.101562 185.117188 43.460938 185.117188 43.488281 C 185.117188 43.617188 185.222656 43.824219 185.503906 43.824219 C 185.738281 43.824219 186.019531 43.617188 186.019531 43.257812 C 186.019531 42.765625 185.480469 42.585938 185.042969 42.585938 C 184.5 42.585938 184.140625 42.921875 183.984375 43.152344 C 183.726562 42.691406 183.1875 42.585938 182.902344 42.585938 C 181.871094 42.585938 181.277344 43.566406 181.277344 43.847656 C 181.277344 43.976562 181.40625 43.976562 181.460938 43.976562 C 181.535156 43.976562 181.589844 43.976562 181.640625 43.875 C 181.871094 43.074219 182.542969 42.871094 182.851562 42.871094 C 183.132812 42.871094 183.445312 42.972656 183.445312 43.410156 C 183.445312 43.617188 183.289062 44.183594 183.003906 45.292969 C 182.902344 45.757812 182.515625 46.039062 182.15625 46.039062 C 182.105469 46.039062 181.871094 46.039062 181.664062 45.910156 C 182.027344 45.757812 182.027344 45.445312 182.027344 45.421875 C 182.027344 45.1875 181.847656 45.085938 181.664062 45.085938 C 181.460938 45.085938 181.175781 45.242188 181.175781 45.628906 C 181.175781 46.144531 181.71875 46.324219 182.15625 46.324219 C 182.59375 46.324219 182.980469 46.039062 183.160156 45.757812 C 183.496094 46.246094 184.011719 46.324219 184.269531 46.324219 C 185.296875 46.324219 185.890625 45.34375 185.890625 45.035156 C 185.890625 44.929688 185.761719 44.929688 185.710938 44.929688 C 185.582031 44.929688 185.554688 44.984375 185.53125 45.035156 C 185.296875 45.78125 184.679688 46.039062 184.320312 46.039062 C 184.0625 46.039062 183.726562 45.9375 183.726562 45.472656 C 183.726562 45.371094 183.726562 45.316406 183.777344 45.035156 C 183.933594 44.46875 184.140625 43.566406 184.214844 43.410156 C 184.320312 43.203125 184.601562 42.871094 185.015625 42.871094 C 185.042969 42.871094 185.324219 42.871094 185.503906 43 Z M 185.503906 43 "/>
<path style="fill:none;stroke-width:1.59404;stroke-linecap:butt;stroke-linejoin:miter;stroke:rgb(0%,0%,100%);stroke-opacity:1;stroke-miterlimit:10;" d="M -0.0000166898 0.00183429 L 17.007546 0.00183429 " transform="matrix(1.649083,0,0,-1.64924,52.437528,61.0499)"/>
<path style=" stroke:none;fill-rule:nonzero;fill:rgb(0%,0%,0%);fill-opacity:1;" d="M 92.816406 60.546875 C 92.84375 60.46875 92.867188 60.367188 92.867188 60.265625 C 92.867188 59.980469 92.6875 59.824219 92.402344 59.824219 C 92.25 59.824219 91.785156 59.929688 91.734375 60.523438 C 91.425781 59.929688 90.859375 59.492188 90.1875 59.492188 C 88.332031 59.492188 86.296875 61.785156 86.296875 64.15625 C 86.296875 65.777344 87.277344 66.757812 88.460938 66.757812 C 89.441406 66.757812 90.214844 65.984375 90.367188 65.804688 L 90.394531 65.832031 C 90.058594 67.273438 89.851562 67.96875 89.851562 67.996094 C 89.777344 68.148438 89.234375 69.773438 87.480469 69.773438 C 87.171875 69.773438 86.632812 69.746094 86.167969 69.59375 C 86.65625 69.464844 86.839844 69.027344 86.839844 68.742188 C 86.839844 68.484375 86.65625 68.175781 86.21875 68.175781 C 85.859375 68.175781 85.34375 68.457031 85.34375 69.128906 C 85.34375 69.796875 85.9375 70.132812 87.507812 70.132812 C 89.570312 70.132812 90.753906 68.84375 91.011719 67.867188 Z M 90.703125 64.644531 C 90.601562 65.082031 90.214844 65.496094 89.851562 65.804688 C 89.519531 66.089844 89.003906 66.398438 88.511719 66.398438 C 87.6875 66.398438 87.457031 65.546875 87.457031 64.875 C 87.457031 64.105469 87.921875 62.144531 88.382812 61.320312 C 88.824219 60.523438 89.519531 59.851562 90.214844 59.851562 C 91.296875 59.851562 91.527344 61.191406 91.527344 61.269531 C 91.527344 61.347656 91.503906 61.449219 91.476562 61.5 Z M 90.703125 64.644531 "/>
<path style=" stroke:none;fill-rule:nonzero;fill:rgb(0%,0%,0%);fill-opacity:1;" d="M 98.949219 70.699219 C 98.949219 70.648438 98.949219 70.625 98.664062 70.339844 C 96.628906 68.277344 96.089844 65.160156 96.089844 62.636719 C 96.089844 59.773438 96.707031 56.914062 98.742188 54.878906 C 98.949219 54.671875 98.949219 54.644531 98.949219 54.59375 C 98.949219 54.464844 98.898438 54.414062 98.792969 54.414062 C 98.613281 54.414062 97.144531 55.546875 96.164062 57.636719 C 95.339844 59.4375 95.132812 61.269531 95.132812 62.636719 C 95.132812 63.921875 95.316406 65.90625 96.214844 67.789062 C 97.222656 69.796875 98.613281 70.882812 98.792969 70.882812 C 98.898438 70.882812 98.949219 70.828125 98.949219 70.699219 Z M 98.949219 70.699219 "/>
<path style=" stroke:none;fill-rule:nonzero;fill:rgb(0%,0%,0%);fill-opacity:1;" d="M 105.390625 61.785156 C 105.492188 61.371094 105.878906 59.851562 107.011719 59.851562 C 107.089844 59.851562 107.503906 59.851562 107.835938 60.058594 C 107.375 60.160156 107.066406 60.546875 107.066406 60.960938 C 107.066406 61.21875 107.246094 61.527344 107.683594 61.527344 C 108.042969 61.527344 108.558594 61.242188 108.558594 60.574219 C 108.558594 59.722656 107.605469 59.492188 107.039062 59.492188 C 106.085938 59.492188 105.519531 60.367188 105.3125 60.726562 C 104.898438 59.644531 104.023438 59.492188 103.535156 59.492188 C 101.832031 59.492188 100.878906 61.605469 100.878906 62.015625 C 100.878906 62.195312 101.0625 62.195312 101.085938 62.195312 C 101.214844 62.195312 101.265625 62.144531 101.292969 62.015625 C 101.859375 60.265625 102.941406 59.851562 103.507812 59.851562 C 103.816406 59.851562 104.386719 60.007812 104.386719 60.960938 C 104.386719 61.476562 104.101562 62.558594 103.507812 64.875 C 103.25 65.882812 102.660156 66.578125 101.9375 66.578125 C 101.832031 66.578125 101.472656 66.578125 101.113281 66.371094 C 101.523438 66.269531 101.886719 65.933594 101.886719 65.46875 C 101.886719 65.03125 101.523438 64.902344 101.292969 64.902344 C 100.777344 64.902344 100.390625 65.316406 100.390625 65.855469 C 100.390625 66.601562 101.191406 66.9375 101.910156 66.9375 C 103.019531 66.9375 103.613281 65.777344 103.636719 65.703125 C 103.84375 66.292969 104.4375 66.9375 105.414062 66.9375 C 107.117188 66.9375 108.042969 64.824219 108.042969 64.414062 C 108.042969 64.234375 107.914062 64.234375 107.863281 64.234375 C 107.707031 64.234375 107.683594 64.308594 107.632812 64.414062 C 107.089844 66.191406 105.980469 66.578125 105.46875 66.578125 C 104.824219 66.578125 104.566406 66.0625 104.566406 65.496094 C 104.566406 65.132812 104.640625 64.773438 104.824219 64.050781 Z M 105.390625 61.785156 "/>
<path style=" stroke:none;fill-rule:nonzero;fill:rgb(0%,0%,0%);fill-opacity:1;" d="M 114.03125 62.636719 C 114.03125 61.371094 113.851562 59.386719 112.949219 57.507812 C 111.96875 55.496094 110.550781 54.414062 110.398438 54.414062 C 110.292969 54.414062 110.21875 54.492188 110.21875 54.59375 C 110.21875 54.644531 110.21875 54.671875 110.527344 54.980469 C 112.148438 56.605469 113.078125 59.207031 113.078125 62.636719 C 113.078125 65.46875 112.484375 68.355469 110.449219 70.417969 C 110.21875 70.625 110.21875 70.648438 110.21875 70.699219 C 110.21875 70.804688 110.292969 70.882812 110.398438 70.882812 C 110.550781 70.882812 112.046875 69.746094 113 67.660156 C 113.851562 65.855469 114.03125 64.027344 114.03125 62.636719 Z M 114.03125 62.636719 "/>
<path style=" stroke:none;fill-rule:nonzero;fill:rgb(0%,0%,0%);fill-opacity:1;" d="M 131.53125 61.371094 C 131.789062 61.371094 132.097656 61.371094 132.097656 61.0625 C 132.097656 60.726562 131.789062 60.726562 131.558594 60.726562 L 121.714844 60.726562 C 121.484375 60.726562 121.175781 60.726562 121.175781 61.0625 C 121.175781 61.371094 121.484375 61.371094 121.714844 61.371094 Z M 131.558594 64.566406 C 131.789062 64.566406 132.097656 64.566406 132.097656 64.234375 C 132.097656 63.921875 131.789062 63.921875 131.53125 63.921875 L 121.714844 63.921875 C 121.484375 63.921875 121.175781 63.921875 121.175781 64.234375 C 121.175781 64.566406 121.484375 64.566406 121.714844 64.566406 Z M 131.558594 64.566406 "/>
<path style=" stroke:none;fill-rule:nonzero;fill:rgb(0%,0%,0%);fill-opacity:1;" d="M 165.257812 52.972656 C 165.257812 52.660156 165.257812 52.660156 164.921875 52.660156 C 164.175781 53.382812 163.144531 53.382812 162.679688 53.382812 L 162.679688 53.796875 C 162.9375 53.796875 163.710938 53.796875 164.332031 53.488281 L 164.332031 59.335938 C 164.332031 59.722656 164.332031 59.878906 163.195312 59.878906 L 162.757812 59.878906 L 162.757812 60.289062 C 162.964844 60.289062 164.382812 60.238281 164.792969 60.238281 C 165.15625 60.238281 166.597656 60.289062 166.855469 60.289062 L 166.855469 59.878906 L 166.417969 59.878906 C 165.257812 59.878906 165.257812 59.722656 165.257812 59.335938 Z M 165.257812 52.972656 "/>
<path style="fill:none;stroke-width:0.398;stroke-linecap:butt;stroke-linejoin:miter;stroke:rgb(0%,0%,0%);stroke-opacity:1;stroke-miterlimit:10;" d="M 0.00102069 -0.00062572 L 30.486721 -0.00062572 " transform="matrix(1.649083,0,0,-1.64924,139.556911,62.651312)"/>
<path style=" stroke:none;fill-rule:nonzero;fill:rgb(0%,0%,0%);fill-opacity:1;" d="M 143.394531 65.105469 C 143.394531 64.796875 143.394531 64.796875 143.0625 64.796875 C 142.3125 65.519531 141.285156 65.519531 140.820312 65.519531 L 140.820312 65.929688 C 141.078125 65.929688 141.851562 65.929688 142.46875 65.621094 L 142.46875 71.472656 C 142.46875 71.859375 142.46875 72.011719 141.335938 72.011719 L 140.898438 72.011719 L 140.898438 72.425781 C 141.101562 72.425781 142.519531 72.375 142.933594 72.375 C 143.292969 72.375 144.734375 72.425781 144.992188 72.425781 L 144.992188 72.011719 L 144.554688 72.011719 C 143.394531 72.011719 143.394531 71.859375 143.394531 71.472656 Z M 143.394531 65.105469 "/>
<path style=" stroke:none;fill-rule:nonzero;fill:rgb(0%,0%,0%);fill-opacity:1;" d="M 151.414062 69.820312 L 154.945312 69.820312 C 155.097656 69.820312 155.355469 69.820312 155.355469 69.5625 C 155.355469 69.253906 155.097656 69.253906 154.945312 69.253906 L 151.414062 69.253906 L 151.414062 65.726562 C 151.414062 65.597656 151.414062 65.3125 151.15625 65.3125 C 150.875 65.3125 150.875 65.570312 150.875 65.726562 L 150.875 69.253906 L 147.34375 69.253906 C 147.1875 69.253906 146.90625 69.253906 146.90625 69.539062 C 146.90625 69.820312 147.164062 69.820312 147.34375 69.820312 L 150.875 69.820312 L 150.875 73.351562 C 150.875 73.507812 150.875 73.789062 151.132812 73.789062 C 151.414062 73.789062 151.414062 73.507812 151.414062 73.351562 Z M 151.414062 69.820312 "/>
<path style=" stroke:none;fill-rule:nonzero;fill:rgb(0%,0%,0%);fill-opacity:1;" d="M 158.769531 69.796875 C 159.078125 69.796875 160.003906 69.769531 160.625 69.5625 C 161.472656 69.253906 161.628906 68.714844 161.628906 68.378906 C 161.628906 67.734375 160.984375 67.347656 160.210938 67.347656 C 158.820312 67.347656 156.964844 68.40625 156.964844 70.390625 C 156.964844 71.546875 157.6875 72.527344 159.027344 72.527344 C 160.984375 72.527344 161.886719 71.394531 161.886719 71.238281 C 161.886719 71.160156 161.78125 71.03125 161.679688 71.03125 C 161.628906 71.03125 161.601562 71.058594 161.5 71.160156 C 160.597656 72.21875 159.257812 72.21875 159.050781 72.21875 C 158.355469 72.21875 157.890625 71.753906 157.890625 70.828125 C 157.890625 70.671875 157.890625 70.441406 158.046875 69.796875 Z M 158.125 69.488281 C 158.613281 67.8125 159.875 67.683594 160.210938 67.683594 C 160.699219 67.683594 161.136719 67.941406 161.136719 68.378906 C 161.136719 69.488281 159.179688 69.488281 158.691406 69.488281 Z M 158.125 69.488281 "/>
<path style=" stroke:none;fill-rule:nonzero;fill:rgb(0%,0%,0%);fill-opacity:1;" d="M 169.664062 67.308594 C 169.792969 67.308594 170 67.308594 170 67.078125 C 170 66.84375 169.792969 66.84375 169.664062 66.84375 L 164.097656 66.84375 C 163.972656 66.84375 163.738281 66.84375 163.738281 67.078125 C 163.738281 67.308594 163.972656 67.308594 164.097656 67.308594 Z M 169.664062 67.308594 "/>
<path style=" stroke:none;fill-rule:nonzero;fill:rgb(0%,0%,0%);fill-opacity:1;" d="M 174.59375 63.90625 C 174.59375 63.675781 174.570312 63.675781 174.285156 63.675781 C 173.71875 64.191406 172.792969 64.191406 172.636719 64.191406 L 172.507812 64.191406 L 172.507812 64.550781 L 172.636719 64.550781 C 172.816406 64.550781 173.359375 64.523438 173.847656 64.320312 L 173.847656 68.441406 C 173.847656 68.675781 173.847656 68.777344 172.972656 68.777344 L 172.558594 68.777344 L 172.558594 69.136719 C 172.996094 69.113281 173.746094 69.113281 174.210938 69.113281 C 174.699219 69.113281 175.421875 69.113281 175.882812 69.136719 L 175.882812 68.777344 L 175.472656 68.777344 C 174.59375 68.777344 174.59375 68.675781 174.59375 68.441406 Z M 174.59375 63.90625 "/>
<path style=" stroke:none;fill-rule:nonzero;fill:rgb(0%,0%,0%);fill-opacity:1;" d="M 181.859375 66.507812 C 181.859375 65.917969 181.859375 63.675781 179.695312 63.675781 C 177.558594 63.675781 177.558594 65.917969 177.558594 66.507812 C 177.558594 67.101562 177.558594 69.316406 179.695312 69.316406 C 181.859375 69.316406 181.859375 67.101562 181.859375 66.507812 Z M 179.695312 69.035156 C 179.414062 69.035156 178.71875 68.929688 178.511719 68.105469 C 178.382812 67.667969 178.382812 67.078125 178.382812 66.40625 C 178.382812 65.789062 178.382812 65.222656 178.511719 64.757812 C 178.71875 64.0625 179.363281 63.933594 179.695312 63.933594 C 180.316406 63.933594 180.753906 64.242188 180.90625 64.835938 C 181.035156 65.246094 181.035156 65.917969 181.035156 66.40625 C 181.035156 66.972656 181.035156 67.644531 180.90625 68.132812 C 180.703125 68.929688 180.03125 69.035156 179.695312 69.035156 Z M 179.695312 69.035156 "/>
<path style=" stroke:none;fill-rule:nonzero;fill:rgb(0%,0%,0%);fill-opacity:1;" d="M 187.609375 65.917969 C 187.222656 66.019531 187.222656 66.378906 187.222656 66.40625 C 187.222656 66.535156 187.324219 66.742188 187.609375 66.742188 C 187.839844 66.742188 188.121094 66.535156 188.121094 66.175781 C 188.121094 65.683594 187.582031 65.503906 187.144531 65.503906 C 186.601562 65.503906 186.242188 65.839844 186.085938 66.070312 C 185.828125 65.605469 185.289062 65.503906 185.003906 65.503906 C 183.972656 65.503906 183.382812 66.484375 183.382812 66.765625 C 183.382812 66.894531 183.511719 66.894531 183.5625 66.894531 C 183.640625 66.894531 183.691406 66.894531 183.742188 66.792969 C 183.972656 65.992188 184.644531 65.789062 184.953125 65.789062 C 185.238281 65.789062 185.546875 65.890625 185.546875 66.328125 C 185.546875 66.535156 185.390625 67.101562 185.109375 68.210938 C 185.003906 68.675781 184.617188 68.957031 184.257812 68.957031 C 184.207031 68.957031 183.972656 68.957031 183.769531 68.828125 C 184.128906 68.675781 184.128906 68.363281 184.128906 68.339844 C 184.128906 68.105469 183.949219 68.003906 183.769531 68.003906 C 183.5625 68.003906 183.277344 68.160156 183.277344 68.546875 C 183.277344 69.058594 183.820312 69.242188 184.257812 69.242188 C 184.695312 69.242188 185.082031 68.957031 185.261719 68.675781 C 185.597656 69.164062 186.113281 69.242188 186.371094 69.242188 C 187.402344 69.242188 187.992188 68.261719 187.992188 67.953125 C 187.992188 67.847656 187.863281 67.847656 187.8125 67.847656 C 187.683594 67.847656 187.660156 67.902344 187.632812 67.953125 C 187.402344 68.699219 186.78125 68.957031 186.421875 68.957031 C 186.164062 68.957031 185.828125 68.855469 185.828125 68.390625 C 185.828125 68.289062 185.828125 68.234375 185.882812 67.953125 C 186.035156 67.386719 186.242188 66.484375 186.320312 66.328125 C 186.421875 66.121094 186.707031 65.789062 187.117188 65.789062 C 187.144531 65.789062 187.425781 65.789062 187.609375 65.917969 Z M 187.609375 65.917969 "/>
</g>
</svg>
