<?xml version="1.0" encoding="UTF-8"?><svg xmlns="http://www.w3.org/2000/svg" xmlns:xlink="http://www.w3.org/1999/xlink" fill-opacity="1" color-rendering="auto" color-interpolation="auto" text-rendering="auto" stroke="black" stroke-linecap="square" width="400" stroke-miterlimit="10" shape-rendering="auto" stroke-opacity="1" fill="black" stroke-dasharray="none" font-weight="normal" stroke-width="1" height="170" font-family="'Dialog'" font-style="normal" stroke-linejoin="miter" font-size="12px" stroke-dashoffset="0" image-rendering="auto">
  <!--Generated by ySVG 2.5-->
  <defs id="genericDefs"/>
  <g>
    <defs id="defs1">
      <clipPath clipPathUnits="userSpaceOnUse" id="clipPath1">
        <path d="M0 0 L400 0 L400 170 L0 170 L0 0 Z"/>
      </clipPath>
      <clipPath clipPathUnits="userSpaceOnUse" id="clipPath2">
        <path d="M-15 54 L385 54 L385 224 L-15 224 L-15 54 Z"/>
      </clipPath>
    </defs>
    <g fill="white" text-rendering="geometricPrecision" shape-rendering="geometricPrecision" transform="translate(15,-54)" stroke="white">
      <rect x="-15" width="400" height="170" y="54" clip-path="url(#clipPath2)" stroke="none"/>
    </g>
    <g text-rendering="geometricPrecision" stroke-miterlimit="1.45" shape-rendering="geometricPrecision" transform="matrix(1,0,0,1,15,-54)" stroke-linecap="butt">
      <rect x="0" y="100" clip-path="url(#clipPath2)" fill="none" width="50" rx="4" ry="4" height="80"/>
      <text x="19" xml:space="preserve" y="130.4023" clip-path="url(#clipPath2)" font-family="sans-serif" stroke="none">数</text>
      <text x="19" xml:space="preserve" y="144.5352" clip-path="url(#clipPath2)" font-family="sans-serif" stroke="none">据</text>
      <text x="19" xml:space="preserve" y="158.668" clip-path="url(#clipPath2)" font-family="sans-serif" stroke="none">集</text>
      <rect x="80" y="100" clip-path="url(#clipPath2)" fill="none" width="50" rx="4" ry="4" height="80"/>
      <text x="93" xml:space="preserve" y="130.4023" clip-path="url(#clipPath2)" font-family="sans-serif" stroke="none">初级</text>
      <text x="93" xml:space="preserve" y="144.5352" clip-path="url(#clipPath2)" font-family="sans-serif" stroke="none">学习</text>
      <text x="93" xml:space="preserve" y="158.668" clip-path="url(#clipPath2)" font-family="sans-serif" stroke="none">方法</text>
      <rect x="160" y="69" clip-path="url(#clipPath2)" fill="none" width="50" rx="4" ry="4" height="30"/>
      <text x="177.0547" xml:space="preserve" y="88.5352" clip-path="url(#clipPath2)" font-family="sans-serif" stroke="none">C1</text>
      <rect x="160" y="124" clip-path="url(#clipPath2)" fill="none" width="50" rx="4" ry="4" height="30"/>
      <text x="179.3047" xml:space="preserve" y="143.5352" clip-path="url(#clipPath2)" font-family="sans-serif" stroke="none">...</text>
      <rect x="160" y="179" clip-path="url(#clipPath2)" fill="none" width="50" rx="4" ry="4" height="30"/>
      <text x="177.0547" xml:space="preserve" y="198.5352" clip-path="url(#clipPath2)" font-family="sans-serif" stroke="none">C2</text>
      <rect x="240" y="99" clip-path="url(#clipPath2)" fill="none" width="50" rx="4" ry="4" height="80"/>
      <text x="253" xml:space="preserve" y="129.4023" clip-path="url(#clipPath2)" font-family="sans-serif" stroke="none">次级</text>
      <text x="253" xml:space="preserve" y="143.5352" clip-path="url(#clipPath2)" font-family="sans-serif" stroke="none">学习</text>
      <text x="253" xml:space="preserve" y="157.668" clip-path="url(#clipPath2)" font-family="sans-serif" stroke="none">方法</text>
      <rect x="320" y="100" clip-path="url(#clipPath2)" fill="none" width="50" rx="4" ry="4" height="80"/>
      <text x="333" xml:space="preserve" y="137.4688" clip-path="url(#clipPath2)" font-family="sans-serif" stroke="none">最终</text>
      <text x="333" xml:space="preserve" y="151.6016" clip-path="url(#clipPath2)" font-family="sans-serif" stroke="none">输出</text>
      <path fill="none" d="M49.9609 140 L71.9798 140" clip-path="url(#clipPath2)"/>
      <path d="M79.9798 140 L67.9798 135 L70.9798 140 L67.9798 145 Z" clip-path="url(#clipPath2)" stroke="none"/>
      <path fill="none" d="M129.9609 122.5273 L157.0271 103.581" clip-path="url(#clipPath2)"/>
      <path d="M163.581 98.9933 L150.8829 101.7787 L156.2079 104.1545 L156.6175 109.971 Z" clip-path="url(#clipPath2)" stroke="none"/>
      <path fill="none" d="M129.9609 139.688 L151.9804 139.4128" clip-path="url(#clipPath2)"/>
      <path d="M159.9798 139.3128 L147.9182 134.4631 L150.9805 139.4252 L148.0432 144.4624 Z" clip-path="url(#clipPath2)" stroke="none"/>
      <path fill="none" d="M129.9609 156.8486 L156.359 174.6673" clip-path="url(#clipPath2)"/>
      <path d="M162.9897 179.1431 L155.8409 168.2852 L155.5301 174.1078 L150.2462 176.5736 Z" clip-path="url(#clipPath2)" stroke="none"/>
      <path fill="none" d="M206.7578 98.9585 L233.4102 117.282" clip-path="url(#clipPath2)"/>
      <path d="M240.0025 121.8142 L232.9466 110.8957 L232.5861 116.7155 L227.2814 119.1361 Z" clip-path="url(#clipPath2)" stroke="none"/>
      <path fill="none" d="M209.9609 139 L231.9798 139" clip-path="url(#clipPath2)"/>
      <path d="M239.9798 139 L227.9798 134 L230.9798 139 L227.9798 144 Z" clip-path="url(#clipPath2)" stroke="none"/>
      <path fill="none" d="M206.7578 179.0415 L233.4102 160.718" clip-path="url(#clipPath2)"/>
      <path d="M240.0025 156.1858 L227.2813 158.8639 L232.5861 161.2845 L232.9466 167.1044 Z" clip-path="url(#clipPath2)" stroke="none"/>
      <path fill="none" d="M289.9609 139.312 L311.9804 139.5872" clip-path="url(#clipPath2)"/>
      <path d="M319.9798 139.6872 L308.0433 134.5376 L310.9805 139.5748 L307.9183 144.5369 Z" clip-path="url(#clipPath2)" stroke="none"/>
    </g>
  </g>
</svg>
