<?xml version="1.0" encoding="UTF-8"?><svg xmlns="http://www.w3.org/2000/svg" xmlns:xlink="http://www.w3.org/1999/xlink" fill-opacity="1" color-rendering="auto" color-interpolation="auto" text-rendering="auto" stroke="black" stroke-linecap="square" width="294" stroke-miterlimit="10" shape-rendering="auto" stroke-opacity="1" fill="black" stroke-dasharray="none" font-weight="normal" stroke-width="1" height="203" font-family="'Dialog'" font-style="normal" stroke-linejoin="miter" font-size="12px" stroke-dashoffset="0" image-rendering="auto">
  <!--Generated by ySVG 2.5-->
  <defs id="genericDefs"/>
  <g>
    <defs id="defs1">
      <clipPath clipPathUnits="userSpaceOnUse" id="clipPath1">
        <path d="M0 0 L294 0 L294 203 L0 203 L0 0 Z"/>
      </clipPath>
      <clipPath clipPathUnits="userSpaceOnUse" id="clipPath2">
        <path d="M-52 -25 L242 -25 L242 178 L-52 178 L-52 -25 Z"/>
      </clipPath>
    </defs>
    <g text-rendering="geometricPrecision" stroke-miterlimit="1.45" shape-rendering="geometricPrecision" transform="matrix(1,0,0,1,52,25)" stroke-linecap="butt">
      <rect x="40" y="-10" clip-path="url(#clipPath2)" fill="none" width="100" rx="4" ry="4" height="50"/>
    </g>
    <g text-rendering="geometricPrecision" stroke-miterlimit="1.45" shape-rendering="geometricPrecision" font-family="sans-serif" transform="matrix(1,0,0,1,52,25)" stroke-linecap="butt">
      <text x="86.2061" xml:space="preserve" y="12.4688" clip-path="url(#clipPath2)" stroke="none">0</text>
      <text x="52.5879" xml:space="preserve" y="26.6016" clip-path="url(#clipPath2)" stroke="none">(-1, 1, -1, 1)</text>
      <rect x="0" y="90" clip-path="url(#clipPath2)" fill="none" width="50" rx="4" ry="4" height="50"/>
      <text x="17.7344" xml:space="preserve" y="112.4688" clip-path="url(#clipPath2)" stroke="none">-1</text>
      <text x="2.7695" xml:space="preserve" y="126.6016" clip-path="url(#clipPath2)" stroke="none">(-1, -1)</text>
      <text x="-34.0098" xml:space="preserve" y="157.6016" clip-path="url(#clipPath2)" stroke="none">残差：r21=0, r23=0</text>
      <rect x="140" y="90" clip-path="url(#clipPath2)" fill="none" width="50" rx="4" ry="4" height="50"/>
      <text x="161.2061" xml:space="preserve" y="112.4688" clip-path="url(#clipPath2)" stroke="none">1</text>
      <text x="149.7129" xml:space="preserve" y="126.6016" clip-path="url(#clipPath2)" stroke="none">(1, 1)</text>
      <text x="105.9902" xml:space="preserve" y="157.6016" clip-path="url(#clipPath2)" stroke="none">残差：r22=0, r24=0</text>
      <path fill="none" d="M73.7659 39.9756 L45.6231 83.2721" clip-path="url(#clipPath2)"/>
      <path d="M41.2632 89.9797 L51.9953 82.6433 L46.1681 82.4337 L43.6109 77.1934 Z" clip-path="url(#clipPath2)" stroke="none"/>
      <text x="-32.6176" xml:space="preserve" y="63.7266" clip-path="url(#clipPath2)" stroke="none">经常到知乎提问</text>
      <path fill="none" d="M108.7317 39.9756 L141.4347 83.5797" clip-path="url(#clipPath2)"/>
      <path d="M146.2347 89.9797 L143.0347 77.3797 L140.8347 82.7797 L135.0347 83.3797 Z" clip-path="url(#clipPath2)" stroke="none"/>
      <text x="133.9434" xml:space="preserve" y="63.7266" clip-path="url(#clipPath2)" stroke="none">经常到知乎回答</text>
    </g>
  </g>
</svg>
