<?xml version="1.0" encoding="UTF-8"?><svg xmlns="http://www.w3.org/2000/svg" xmlns:xlink="http://www.w3.org/1999/xlink" fill-opacity="1" color-rendering="auto" color-interpolation="auto" text-rendering="auto" stroke="black" stroke-linecap="square" width="567" stroke-miterlimit="10" shape-rendering="auto" stroke-opacity="1" fill="black" stroke-dasharray="none" font-weight="normal" stroke-width="1" height="280" font-family="'Dialog'" font-style="normal" stroke-linejoin="miter" font-size="12px" stroke-dashoffset="0" image-rendering="auto">
  <!--Generated by ySVG 2.5-->
  <defs id="genericDefs"/>
  <g>
    <defs id="defs1">
      <clipPath clipPathUnits="userSpaceOnUse" id="clipPath1">
        <path d="M0 0 L567 0 L567 280 L0 280 L0 0 Z"/>
      </clipPath>
      <clipPath clipPathUnits="userSpaceOnUse" id="clipPath2">
        <path d="M-93 85 L474 85 L474 365 L-93 365 L-93 85 Z"/>
      </clipPath>
    </defs>
    <g text-rendering="geometricPrecision" stroke-miterlimit="1.45" shape-rendering="geometricPrecision" transform="matrix(1,0,0,1,93,-85)" stroke-linecap="butt">
      <rect x="32" y="200" clip-path="url(#clipPath2)" fill="none" width="80" rx="4" ry="4" height="50"/>
    </g>
    <g text-rendering="geometricPrecision" stroke-miterlimit="1.45" shape-rendering="geometricPrecision" font-family="sans-serif" transform="matrix(1,0,0,1,93,-85)" stroke-linecap="butt">
      <text x="64.4121" xml:space="preserve" y="222.4688" clip-path="url(#clipPath2)" stroke="none">15</text>
      <text x="49.125" xml:space="preserve" y="236.6016" clip-path="url(#clipPath2)" stroke="none">(14, 16)</text>
      <rect x="334" y="200" clip-path="url(#clipPath2)" fill="none" width="80" rx="4" ry="4" height="50"/>
      <text x="366.4121" xml:space="preserve" y="222.4688" clip-path="url(#clipPath2)" stroke="none">25</text>
      <text x="351.125" xml:space="preserve" y="236.6016" clip-path="url(#clipPath2)" stroke="none">(24, 26)</text>
      <rect x="0" y="300" clip-path="url(#clipPath2)" fill="none" width="50" rx="4" ry="4" height="50"/>
      <text x="17.4121" xml:space="preserve" y="322.4688" clip-path="url(#clipPath2)" stroke="none">14</text>
      <text x="13.5098" xml:space="preserve" y="336.6016" clip-path="url(#clipPath2)" stroke="none">(14)</text>
      <rect x="100" y="300" clip-path="url(#clipPath2)" fill="none" width="50" rx="4" ry="4" height="50"/>
      <text x="117.4121" xml:space="preserve" y="322.4688" clip-path="url(#clipPath2)" stroke="none">16</text>
      <text x="113.5098" xml:space="preserve" y="336.6016" clip-path="url(#clipPath2)" stroke="none">(16)</text>
      <rect x="300" y="300" clip-path="url(#clipPath2)" fill="none" width="50" rx="4" ry="4" height="50"/>
      <text x="317.4121" xml:space="preserve" y="322.4688" clip-path="url(#clipPath2)" stroke="none">24</text>
      <text x="313.5098" xml:space="preserve" y="336.6016" clip-path="url(#clipPath2)" stroke="none">(24)</text>
      <rect x="400" y="300" clip-path="url(#clipPath2)" fill="none" width="50" rx="4" ry="4" height="50"/>
      <text x="417.4121" xml:space="preserve" y="322.4688" clip-path="url(#clipPath2)" stroke="none">26</text>
      <text x="413.5098" xml:space="preserve" y="336.6016" clip-path="url(#clipPath2)" stroke="none">(26)</text>
      <rect x="166" y="100" clip-path="url(#clipPath2)" fill="none" width="120" rx="4" ry="4" height="50"/>
      <text x="218.4121" xml:space="preserve" y="122.4688" clip-path="url(#clipPath2)" stroke="none">20</text>
      <text x="180.3555" xml:space="preserve" y="136.6016" clip-path="url(#clipPath2)" stroke="none">(14, 16, 24, 26)</text>
      <path fill="none" d="M60.2615 249.9756 L40.1625 292.7395" clip-path="url(#clipPath2)"/>
      <path d="M36.7596 299.9796 L46.389 291.2462 L40.5878 291.8344 L37.3388 286.9926 Z" clip-path="url(#clipPath2)" stroke="none"/>
      <text x="-75.3198" xml:space="preserve" y="279.5352" clip-path="url(#clipPath2)" stroke="none">日均上网时间 ≥ 1.1h</text>
      <path fill="none" d="M85.2371 249.9756 L107.9929 292.9111" clip-path="url(#clipPath2)"/>
      <path d="M111.7392 299.9796 L110.5376 287.0353 L107.5246 292.0275 L101.7018 291.7182 Z" clip-path="url(#clipPath2)" stroke="none"/>
      <text x="107.3052" xml:space="preserve" y="279.5352" clip-path="url(#clipPath2)" stroke="none">日均上网时间 ≤ 1.1h</text>
      <path fill="none" d="M361.762 249.9756 L340.7801 292.7957" clip-path="url(#clipPath2)"/>
      <path d="M337.26 299.9796 L347.0301 291.4038 L341.2201 291.8977 L338.0502 287.0037 Z" clip-path="url(#clipPath2)" stroke="none"/>
      <text x="293.0575" xml:space="preserve" y="279.5352" clip-path="url(#clipPath2)" stroke="none">全天上网</text>
      <path fill="none" d="M386.7375 249.9756 L408.605 292.853" clip-path="url(#clipPath2)"/>
      <path d="M412.2396 299.9796 L411.2419 287.018 L408.1507 291.9621 L402.3335 291.5612 Z" clip-path="url(#clipPath2)" stroke="none"/>
      <text x="408.1239" xml:space="preserve" y="279.5352" clip-path="url(#clipPath2)" stroke="none">晚上上网</text>
      <path fill="none" d="M187.5376 149.9756 L116.5357 196.0807" clip-path="url(#clipPath2)"/>
      <path d="M109.8261 200.4376 L122.6135 198.0958 L117.3744 195.5361 L117.1674 189.7088 Z" clip-path="url(#clipPath2)" stroke="none"/>
      <text x="44.4927" xml:space="preserve" y="173.7266" clip-path="url(#clipPath2)" stroke="none">月均消费 ≤ 2000</text>
      <path fill="none" d="M262.9639 149.9756 L330.5309 195.629" clip-path="url(#clipPath2)"/>
      <path d="M337.1597 200.1079 L330.0159 189.2466 L329.7024 195.0692 L324.4173 197.5325 Z" clip-path="url(#clipPath2)" stroke="none"/>
      <text x="308.8216" xml:space="preserve" y="173.7266" clip-path="url(#clipPath2)" stroke="none">月均消费 ≥ 2000</text>
    </g>
  </g>
</svg>
