<?xml version="1.0" encoding="UTF-8"?><svg xmlns="http://www.w3.org/2000/svg" xmlns:xlink="http://www.w3.org/1999/xlink" fill-opacity="1" color-rendering="auto" color-interpolation="auto" text-rendering="auto" stroke="black" stroke-linecap="square" width="430" stroke-miterlimit="10" shape-rendering="auto" stroke-opacity="1" fill="black" stroke-dasharray="none" font-weight="normal" stroke-width="1" height="191" font-family="'Dialog'" font-style="normal" stroke-linejoin="miter" font-size="12px" stroke-dashoffset="0" image-rendering="auto">
  <!--Generated by ySVG 2.5-->
  <defs id="genericDefs"/>
  <g>
    <defs id="defs1">
      <linearGradient x1="1102.2468" gradientUnits="userSpaceOnUse" x2="1104.9136" y1="478" y2="478" id="linearGradient1" spreadMethod="reflect">
        <stop stop-opacity="1" stop-color="white" offset="0%"/>
        <stop stop-opacity="1" stop-color="white" offset="100%"/>
      </linearGradient>
      <linearGradient x1="1117.8705" gradientUnits="userSpaceOnUse" x2="1120.5371" y1="478" y2="478" id="linearGradient2" spreadMethod="reflect">
        <stop stop-opacity="1" stop-color="white" offset="0%"/>
        <stop stop-opacity="1" stop-color="white" offset="100%"/>
      </linearGradient>
      <clipPath clipPathUnits="userSpaceOnUse" id="clipPath1">
        <path d="M0 0 L430 0 L430 191 L0 191 L0 0 Z"/>
      </clipPath>
      <clipPath clipPathUnits="userSpaceOnUse" id="clipPath2">
        <path d="M715 385 L1145 385 L1145 576 L715 576 L715 385 Z"/>
      </clipPath>
    </defs>
    <g fill="silver" text-rendering="geometricPrecision" shape-rendering="geometricPrecision" transform="matrix(1,0,0,1,-715,-385)" stroke="silver">
      <rect x="913" width="60" height="40" y="460" clip-path="url(#clipPath2)" stroke="none"/>
    </g>
    <g text-rendering="geometricPrecision" stroke-miterlimit="1.45" stroke-width="2" shape-rendering="geometricPrecision" transform="matrix(1,0,0,1,-715,-385)" stroke-linecap="butt">
      <rect fill="none" x="913" width="60" height="40" y="460" clip-path="url(#clipPath2)"/>
    </g>
    <g fill="silver" text-rendering="geometricPrecision" shape-rendering="geometricPrecision" transform="matrix(1,0,0,1,-715,-385)" stroke="silver">
      <rect x="975" width="30" height="40" y="460" clip-path="url(#clipPath2)" stroke="none"/>
    </g>
    <g text-rendering="geometricPrecision" stroke-miterlimit="1.45" stroke-width="2" shape-rendering="geometricPrecision" transform="matrix(1,0,0,1,-715,-385)" stroke-linecap="butt">
      <rect fill="none" x="975" width="30" height="40" y="460" clip-path="url(#clipPath2)"/>
      <rect stroke-linecap="square" x="1079" y="465" clip-path="url(#clipPath2)" width="2" height="30" stroke="none" stroke-width="1" stroke-miterlimit="10"/>
      <rect x="1079" y="465" clip-path="url(#clipPath2)" fill="none" width="2" height="30" stroke-width="1"/>
    </g>
    <g fill="url(#linearGradient1)" text-rendering="geometricPrecision" shape-rendering="geometricPrecision" transform="matrix(1,0,0,1,-715,-385)" stroke="url(#linearGradient1)">
      <circle r="2" clip-path="url(#clipPath2)" cx="1102.9135" cy="480" stroke="none"/>
    </g>
    <g text-rendering="geometricPrecision" stroke-miterlimit="1.45" shape-rendering="geometricPrecision" transform="matrix(1,0,0,1,-715,-385)" stroke-linecap="butt">
      <circle fill="none" r="2" clip-path="url(#clipPath2)" cx="1102.9135" cy="480"/>
    </g>
    <g fill="url(#linearGradient2)" text-rendering="geometricPrecision" shape-rendering="geometricPrecision" transform="matrix(1,0,0,1,-715,-385)" stroke="url(#linearGradient2)">
      <circle r="2" clip-path="url(#clipPath2)" cx="1118.5372" cy="480" stroke="none"/>
    </g>
    <g text-rendering="geometricPrecision" stroke-miterlimit="1.45" shape-rendering="geometricPrecision" transform="matrix(1,0,0,1,-715,-385)" stroke-linecap="butt">
      <circle fill="none" r="2" clip-path="url(#clipPath2)" cx="1118.5372" cy="480"/>
      <text x="956" xml:space="preserve" y="419.5352" clip-path="url(#clipPath2)" font-family="sans-serif" stroke="none">中位数</text>
      <text x="872.8621" xml:space="preserve" y="549.5352" clip-path="url(#clipPath2)" font-family="sans-serif" stroke="none">第1个四分位数</text>
      <text x="965.2061" xml:space="preserve" y="549.5352" clip-path="url(#clipPath2)" font-family="sans-serif" stroke="none">第3个四分位数</text>
      <text x="1062" xml:space="preserve" y="419.5352" clip-path="url(#clipPath2)" font-family="sans-serif" stroke="none">上边界</text>
      <text x="1092" xml:space="preserve" y="549.5352" clip-path="url(#clipPath2)" font-family="sans-serif" stroke="none">离群点</text>
      <rect stroke-linecap="square" x="779" y="465" clip-path="url(#clipPath2)" width="2" height="30" stroke="none" stroke-miterlimit="10"/>
      <rect fill="none" x="779" width="2" height="30" y="465" clip-path="url(#clipPath2)"/>
      <circle fill="none" r="2" clip-path="url(#clipPath2)" cx="750" cy="480"/>
      <text x="732" xml:space="preserve" y="549.5352" clip-path="url(#clipPath2)" font-family="sans-serif" stroke="none">离群点</text>
      <text x="762" xml:space="preserve" y="419.5352" clip-path="url(#clipPath2)" font-family="sans-serif" stroke="none">下边界</text>
      <path fill="none" stroke-dasharray="6,2" d="M1005 480 L1079 480" clip-path="url(#clipPath2)"/>
      <path fill="none" d="M974 430 L974 447" clip-path="url(#clipPath2)"/>
      <path d="M974 455 L979 443 L974 446 L969 443 Z" clip-path="url(#clipPath2)" stroke="none"/>
      <path fill="none" d="M912.785 530 L912.9312 512.9997" clip-path="url(#clipPath2)"/>
      <path d="M913 505 L907.897 516.9565 L912.9226 513.9997 L917.8966 517.0425 Z" clip-path="url(#clipPath2)" stroke="none"/>
      <path fill="none" d="M1005 530 L1005 513" clip-path="url(#clipPath2)"/>
      <path d="M1005 505 L1000 517 L1005 514 L1010 517 Z" clip-path="url(#clipPath2)" stroke="none"/>
      <path fill="none" d="M1080 430 L1080 452" clip-path="url(#clipPath2)"/>
      <path d="M1080 460 L1085 448 L1080 451 L1075 448 Z" clip-path="url(#clipPath2)" stroke="none"/>
      <path fill="none" d="M1109.9724 530 L1109.9282 506" clip-path="url(#clipPath2)"/>
      <path d="M1109.9136 498 L1104.9355 510.0091 L1109.9301 507 L1114.9355 509.9908 Z" clip-path="url(#clipPath2)" stroke="none"/>
      <path fill="none" stroke-dasharray="6,2" d="M781 480 L913 480" clip-path="url(#clipPath2)"/>
      <path fill="none" d="M750 530 L750 506" clip-path="url(#clipPath2)"/>
      <path d="M750 498 L745 510 L750 507 L755 510 Z" clip-path="url(#clipPath2)" stroke="none"/>
      <path fill="none" d="M780 430 L780 452" clip-path="url(#clipPath2)"/>
      <path d="M780 460 L785 448 L780 451 L775 448 Z" clip-path="url(#clipPath2)" stroke="none"/>
    </g>
  </g>
</svg>
